<?xml version="1.0" encoding="utf-8"?>
<!-- Generator: Adobe Illustrator 21.0.0, SVG Export Plug-In . SVG Version: 6.00 Build 0)  -->
<svg version="1.1" xmlns="http://www.w3.org/2000/svg" xmlns:xlink="http://www.w3.org/1999/xlink" x="0px" y="0px"
	 viewBox="0 0 850.4 850.4" style="enable-background:new 0 0 850.4 850.4;" xml:space="preserve">
<style type="text/css">
	.st0{display:none;}
	.st1{display:inline;}
	.st2{fill:#FBD851;}
	.st3{fill:#FFFFFF;}
	.st4{fill:#F9B839;}
	.st5{fill:#2C130E;}
	.st6{fill:#FDEBF1;}
	.st7{fill:#DC2727;}
	.st8{fill:#ED737A;}
	.st9{fill:#FEE3D7;}
	.st10{fill:#8AB88A;}
	.st11{fill:#3B9A52;}
	.st12{fill:#FEEFC3;}
	.st13{fill:#FDE596;}
	.st14{fill:#FAD00A;}
	.st15{fill:#F8F09B;}
	.st16{fill:#F5EB3A;}
	.st17{fill:#F8F29E;}
	.st18{fill:#FBF9D3;}
	.st19{fill:#9A9DAC;}
	.st20{fill:#646C82;}
	.st21{fill:#F1F1F3;}
	.st22{fill:#5CC6C7;}
	.st23{fill:#F7EE74;}
</style>
<g id="Layer_1" class="st0">
	<g class="st1">
		<g>
			<g>
				<g>
					<circle class="st2" cx="424.9" cy="424.8" r="393.6"/>
				</g>
			</g>
			<g>
				
					<ellipse transform="matrix(0.9611 -0.2762 0.2762 0.9611 -16.7079 95.8414)" class="st3" cx="331.9" cy="107.2" rx="50.3" ry="31"/>
			</g>
			<g>
				<path class="st4" d="M681.1,126c-15.4,203.3-185.2,363.5-392.5,363.5c-97.9,0-187.4-35.7-256.2-94.8c-0.8,10-1.1,20-1.1,30.2
					c0,217.4,176.2,393.6,393.6,393.6c217.4,0,393.6-176.2,393.6-393.6C818.5,305.2,765.2,198.1,681.1,126z"/>
			</g>
			<g>
				<g>
					<path class="st5" d="M424.9,827.2c-54.3,0-107-10.6-156.7-31.6c-47.9-20.3-91-49.3-127.9-86.2c-37-37-66-80-86.2-127.9
						c-21-49.6-31.6-102.3-31.6-156.7c0-54.3,10.6-107,31.6-156.7c20.3-47.9,49.3-91,86.2-127.9c37-37,80-66,127.9-86.2
						c49.6-21,102.3-31.6,156.7-31.6c54.3,0,107,10.6,156.7,31.6c47.9,20.3,91,49.3,127.9,86.2c37,37,66,80,86.2,127.9
						c21,49.6,31.6,102.3,31.6,156.7c0,54.3-10.6,107-31.6,156.7c-20.3,47.9-49.3,91-86.2,127.9c-37,37-80,66-127.9,86.2
						C531.9,816.6,479.2,827.2,424.9,827.2z M424.9,40c-52,0-102.3,10.2-149.8,30.2c-45.8,19.4-87,47.1-122.3,82.5
						C117.5,188,89.7,229.2,70.3,275c-20.1,47.4-30.2,97.8-30.2,149.8s10.2,102.3,30.2,149.8c19.4,45.8,47.1,87,82.5,122.3
						c35.3,35.3,76.5,63.1,122.3,82.5c47.4,20.1,97.8,30.2,149.8,30.2s102.3-10.2,149.8-30.2c45.8-19.4,87-47.1,122.3-82.5
						c35.3-35.3,63.1-76.5,82.5-122.3c20.1-47.4,30.2-97.8,30.2-149.8S799.5,322.4,779.5,275c-19.4-45.8-47.1-87-82.5-122.3
						c-35.3-35.3-76.5-63.1-122.3-82.5C527.2,50.1,476.8,40,424.9,40z"/>
				</g>
			</g>
			<g>
				<path class="st3" d="M424.9,792.1c-49.6,0-97.7-9.7-143-28.9c-43.7-18.5-83-45-116.8-78.7c-33.7-33.7-60.2-73-78.7-116.8
					c-19.2-45.3-28.9-93.4-28.9-143c0-49.6,9.7-97.7,28.9-143c18.5-43.7,45-83,78.7-116.8c33.7-33.7,73-60.2,116.8-78.7
					c45.3-19.2,93.4-28.9,143-28.9c49.6,0,97.7,9.7,143,28.9c43.7,18.5,83,45,116.8,78.7c33.7,33.7,60.2,73,78.7,116.8
					c19.2,45.3,28.9,93.4,28.9,143c0,49.6-9.7,97.7-28.9,143c-18.5,43.7-45,83-78.7,116.8c-33.7,33.7-73,60.2-116.8,78.7
					C522.6,782.4,474.5,792.1,424.9,792.1z M424.9,62.8c-48.9,0-96.3,9.6-140.9,28.4c-43.1,18.2-81.8,44.3-115.1,77.6
					c-33.2,33.2-59.3,72-77.6,115.1c-18.9,44.6-28.4,92-28.4,140.9c0,48.9,9.6,96.3,28.4,140.9c18.2,43.1,44.3,81.8,77.6,115.1
					c33.2,33.2,72,59.3,115.1,77.6c44.6,18.9,92,28.4,140.9,28.4c48.9,0,96.3-9.6,140.9-28.4c43.1-18.2,81.8-44.3,115.1-77.6
					c33.2-33.2,59.3-72,77.6-115.1c18.9-44.6,28.4-92,28.4-140.9c0-48.9-9.6-96.3-28.4-140.9c-18.2-43.1-44.3-81.8-77.6-115.1
					c-33.2-33.2-72-59.3-115.1-77.6C521.2,72.4,473.8,62.8,424.9,62.8z"/>
			</g>
		</g>
		<g>
			<g>
				<g>
					<path class="st4" d="M424.9,165.1c143.2,0,259.6,116.5,259.6,259.6c0,143.2-116.5,259.6-259.6,259.6
						c-143.2,0-259.6-116.5-259.6-259.6C165.3,281.6,281.7,165.1,424.9,165.1z"/>
				</g>
			</g>
			<g>
				<path class="st2" d="M298.3,361.2C425.5,289.6,565.4,279,664,323.5c-39.5-93-131.8-158.4-239.1-158.4
					c-143.2,0-259.6,116.5-259.6,259.6c0,13.8,1.1,27.3,3.2,40.4C203.3,425.8,247.1,390.1,298.3,361.2z"/>
			</g>
			<g>
				<path class="st3" d="M208.7,396.5c-0.1,0-0.2,0-0.2,0c-1.9-0.1-3.3-1.7-3.2-3.6c1-14.4,4-28.6,9.1-42.2c0.7-1.8,2.6-2.6,4.4-2
					c1.8,0.7,2.6,2.6,2,4.4c-4.9,12.9-7.8,26.5-8.7,40.2C212,395.2,210.5,396.5,208.7,396.5z"/>
			</g>
			<g>
				<path class="st3" d="M228.3,333c-0.6,0-1.3-0.2-1.9-0.6c-1.6-1-2-3.1-1-4.7l18.1-27.4c1-1.6,3.1-2,4.7-1c1.6,1,2,3.1,1,4.7
					l-18.1,27.4C230.4,332.5,229.4,333,228.3,333z"/>
			</g>
			<g>
				<ellipse class="st3" cx="370.8" cy="242.5" rx="76" ry="49.2"/>
			</g>
			<g>
				<g>
					<path class="st5" d="M424.9,689.8c-146.2,0-265.1-118.9-265.1-265.1c0-146.2,118.9-265.1,265.1-265.1
						c146.2,0,265.1,118.9,265.1,265.1C690,570.9,571.1,689.8,424.9,689.8z M424.9,170.6c-140.2,0-254.2,114-254.2,254.2
						S284.7,679,424.9,679c140.2,0,254.2-114,254.2-254.2S565.1,170.6,424.9,170.6z"/>
				</g>
			</g>
			<g>
				<path class="st3" d="M424.9,668.2c-65,0-126.1-25.3-172.1-71.3c-46-46-71.3-107.1-71.3-172.1c0-65,25.3-126.1,71.3-172.1
					c46-46,107.1-71.3,172.1-71.3c65,0,126.1,25.3,172.1,71.3c46,46,71.3,107.1,71.3,172.1c0,65-25.3,126.1-71.3,172.1
					C551,642.8,489.9,668.2,424.9,668.2z M424.9,186.8c-63.6,0-123.3,24.8-168.3,69.7c-44.9,44.9-69.7,104.7-69.7,168.3
					c0,63.6,24.8,123.3,69.7,168.3c44.9,44.9,104.7,69.7,168.3,69.7c63.6,0,123.3-24.8,168.3-69.7c44.9-44.9,69.7-104.7,69.7-168.3
					c0-63.6-24.8-123.3-69.7-168.3C548.2,211.6,488.5,186.8,424.9,186.8z"/>
			</g>
		</g>
		<g>
			<g>
				<path class="st5" d="M407.4,595.8c-2.4-2.3-3.6-6-3.6-11.1v-18.5c-34.6-3-60-10.1-76.4-21.3c-3.5-2.4-5.2-4.6-5.2-6.4
					c0-1.1,0.7-2.7,2-4.8l12.9-20.9c1.6-2.4,3.1-3.6,4.4-3.6c1.3,0,3.1,0.7,5.2,2c11,5.9,23.1,10.5,36.4,13.9
					c13.3,3.4,26.5,5,39.6,5c19,0,32.8-3.2,41.2-9.6c8.4-6.4,12.7-15.9,12.7-28.5c0-8.6-2-15.4-6-20.5c-4-5.1-9.8-9.4-17.3-13.1
					c-7.5-3.6-19.8-8.5-37-14.7c-25.5-9.1-46-20.2-61.5-33.2c-15.5-13-23.3-30.2-23.3-51.7c0-21.2,6.3-37.9,18.9-50.3
					c12.6-12.3,30.4-20.1,53.5-23.3v-20.1c0-5.1,1.2-8.8,3.6-11.3c2.4-2.4,6.3-3.6,11.7-3.6h17.7c5.4,0,9.2,1.2,11.7,3.6
					c2.4,2.4,3.6,6.2,3.6,11.3v18.9c14.2,0.8,26.4,2.8,36.6,6c10.2,3.2,19.3,7.8,27.3,13.7c3.2,2.4,4.8,4.6,4.8,6.4
					c0,1.9-0.5,3.5-1.6,4.8l-12.5,20.1c-1.6,2.4-3.1,3.6-4.4,3.6c-1.1,0-2.7-0.7-4.8-2c-7.5-5.1-16.8-9-27.9-11.9
					c-11.1-2.8-23.3-4.2-36.4-4.2c-16.9,0-29.5,3-38,9c-8.4,6-12.7,15.9-12.7,29.5c0,7.8,1.7,14,5.2,18.7c3.5,4.7,8.3,8.6,14.5,11.7
					c6.2,3.1,15.5,7,28.1,11.9l16.9,6.4c20.6,8,36.5,15.6,47.6,22.7c11.1,7.1,19.4,15.5,24.7,25.3c5.4,9.8,8,22.3,8,37.6
					c0,19.6-6.4,35.8-19.3,48.6c-12.9,12.9-31.6,20.9-56.3,24.1v18.5c0,5.1-1.1,8.8-3.4,11.1c-2.3,2.3-6.2,3.4-11.9,3.4h-17.7
					C413.7,599.2,409.8,598.1,407.4,595.8z"/>
			</g>
		</g>
		<g>
			<g>
				<g>
					<path class="st5" d="M155.4,382.3c-0.2,0-0.4,0-0.6-0.1l-55-9.7c-1.8-0.3-3.1-2.1-2.8-3.9c0.3-1.8,2.1-3.1,3.9-2.8l55,9.7
						c1.8,0.3,3.1,2.1,2.8,3.9C158.5,381.2,157,382.3,155.4,382.3z"/>
				</g>
			</g>
			<g>
				<g>
					<path class="st5" d="M312.2,739.5c-0.4,0-0.8-0.1-1.2-0.2c-1.8-0.6-2.7-2.6-2-4.4l19.1-52.5c0.6-1.8,2.6-2.7,4.4-2
						c1.8,0.6,2.7,2.6,2,4.4l-19.1,52.5C314.9,738.6,313.6,739.5,312.2,739.5z"/>
				</g>
			</g>
			<g>
				<g>
					<path class="st5" d="M710.3,594.6c-0.6,0-1.2-0.1-1.7-0.5l-48.4-27.9c-1.6-0.9-2.2-3-1.2-4.6c0.9-1.6,3-2.2,4.6-1.2l48.4,27.9
						c1.6,0.9,2.2,3,1.2,4.6C712.6,594,711.4,594.6,710.3,594.6z"/>
				</g>
			</g>
			<g>
				<g>
					<path class="st5" d="M600.8,220.2c-0.8,0-1.5-0.3-2.2-0.8c-1.4-1.2-1.6-3.4-0.4-4.8l35.9-42.8c1.2-1.4,3.4-1.6,4.8-0.4
						c1.4,1.2,1.6,3.3,0.4,4.8L603.4,219C602.7,219.8,601.8,220.2,600.8,220.2z"/>
				</g>
			</g>
			<g>
				<g>
					<path class="st5" d="M249,220.2c-1,0-1.9-0.4-2.6-1.2l-35.9-42.8c-1.2-1.4-1-3.6,0.4-4.8c1.4-1.2,3.6-1,4.8,0.4l35.9,42.8
						c1.2,1.4,1,3.6-0.4,4.8C250.6,219.9,249.8,220.2,249,220.2z"/>
				</g>
			</g>
			<g>
				<g>
					<path class="st5" d="M139.5,594.6c-1.2,0-2.3-0.6-2.9-1.7c-0.9-1.6-0.4-3.7,1.2-4.6l48.4-27.9c1.6-0.9,3.7-0.4,4.6,1.2
						c0.9,1.6,0.4,3.7-1.2,4.6l-48.4,27.9C140.7,594.4,140.1,594.6,139.5,594.6z"/>
				</g>
			</g>
			<g>
				<g>
					<path class="st5" d="M537.6,739.5c-1.4,0-2.7-0.9-3.2-2.2l-19.1-52.5c-0.6-1.8,0.3-3.7,2-4.4c1.8-0.6,3.7,0.3,4.4,2l19.1,52.5
						c0.6,1.8-0.3,3.7-2,4.4C538.4,739.4,538,739.5,537.6,739.5z"/>
				</g>
			</g>
			<g>
				<g>
					<path class="st5" d="M694.4,382.3c-1.6,0-3.1-1.2-3.3-2.8c-0.3-1.8,0.9-3.6,2.8-3.9l55-9.7c1.8-0.3,3.6,0.9,3.9,2.8
						c0.3,1.8-0.9,3.6-2.8,3.9l-55,9.7C694.8,382.3,694.6,382.3,694.4,382.3z"/>
				</g>
			</g>
			<g>
				<g>
					<path class="st5" d="M424.9,156.2c-1.9,0-3.4-1.5-3.4-3.4V96.9c0-1.9,1.5-3.4,3.4-3.4c1.9,0,3.4,1.5,3.4,3.4v55.9
						C428.3,154.7,426.8,156.2,424.9,156.2z"/>
				</g>
			</g>
		</g>
	</g>
</g>
<g id="Layer_2" class="st0">
	<g id="heart_icon_00000046319987270865631990000000426828623490283683_" class="st1">
		<g>
			<path class="st6" d="M575.2,124.9L116.9,289.6C51.8,313,18,384.7,41.4,449.8l72.3,201.1c23.4,65.1,95.1,98.9,160.2,75.5
				l329.5-118.4l72.9,49.9c36.8,25.2,86.1-5.2,80.1-49.4l-7.4-54.3c137.4-71.5,12.1-253.2-13.6-353.8
				C712,135.3,640.2,101.5,575.2,124.9z"/>
			<path class="st5" d="M231.4,744.6c-55.9,0.5-109.7-36.9-127.9-90.1c0,0-72.3-201.1-72.3-201.1c-12.3-34.2-10.5-71.1,5-104
				c15.5-32.9,42.8-57.7,77-70l458.3-164.7c68.3-26.1,150.7,12.7,174,82c0,0,72.3,201.1,72.3,201.1c22.2,59-3,130.2-57.1,162.1
				l6.4,47c9,51.7-54.8,91-96.9,59.8c0,0-68.3-46.8-68.3-46.8C572.9,627.3,253.3,753.3,231.4,744.6z M578.8,135.1L120.5,299.8
				c-58.3,19.6-91,88.9-68.9,146.3c0,0,72.3,201.1,72.3,201.1c10.3,28.8,31.2,51.8,58.9,64.8c27.6,13,58.7,14.5,87.4,4.2
				l329.5-118.4c3.3-1.2,6.9-0.7,9.8,1.3l72.9,49.9c16.1,11,33.4,7.8,44.3,1.1c31.9-16.6,13.6-65.9,11.6-94.4
				c-0.6-4.5,1.6-8.9,5.6-11c129.3-68.2,3.8-245.5-18.7-340.6C705.5,145.7,636.3,113.1,578.8,135.1z M575.2,124.9L575.2,124.9
				L575.2,124.9z"/>
		</g>
		<g>
			<path class="st7" d="M562.5,469.6c-18.9,44.4-52.8,90.3-99.2,108.6c-98.1,27.5-233.6-45.7-252.1-149
				c-11.3-108,142-144.6,182.7-44.9C363.3,191.6,666.2,226.8,562.5,469.6z"/>
			<path class="st8" d="M397.6,519.7C487.9,475,538.7,342,466.3,262c-54.9,9.9-89.7,69.4-72.3,122.2c-40.7-99.7-194-63-182.7,44.9
				C228.2,525.2,308.6,563.1,397.6,519.7z"/>
			<path class="st9" d="M311.4,392.9c14.7,41.5-51.8,65.4-66.9,24C229.8,375.4,296.3,351.5,311.4,392.9z"/>
			<path class="st5" d="M422.7,597.1c-94.1-3.2-207-66.1-223.4-166.7c-11.4-96.4,109.7-156.3,179.1-88.8
				c10-95.8,142.7-127.7,195.1-45.8C637.2,404.7,548.4,596.4,422.7,597.1z M304.5,336.8c-47.3-0.7-86.6,44.4-81.1,91.1
				c-1.3,77.1,161.9,172.8,235.6,138.9c17.7-7,62.1-30.8,92.4-102l0,0c95.7-223.6-173.1-252.8-145.8-84.3c2,6.2-1.2,12.8-7.3,15.1
				C375.5,403.3,377.3,337.9,304.5,336.8z M562.5,469.6L562.5,469.6L562.5,469.6z"/>
		</g>
	</g>
</g>
<g id="Layer_3" class="st0">
	<g class="st1">
		<g>
			<g>
				<rect x="141.9" y="522.7" class="st10" width="474" height="129"/>
			</g>
			<g>
				<path class="st11" d="M201.7,614c-20.1-0.9-40-3.5-59.8-6.7v44.5h474v-67.6C483.6,638.5,339.6,618.6,201.7,614z"/>
			</g>
			<g>
				<path class="st5" d="M615.8,662h-474c-5.7,0-10.3-4.6-10.3-10.3v-129c0-5.7,4.6-10.3,10.3-10.3h474c5.7,0,10.3,4.6,10.3,10.3
					v129C626.1,657.4,621.5,662,615.8,662z M152.2,641.5h453.4V533H152.2V641.5z"/>
			</g>
			<g>
				<rect x="284.9" y="526.8" class="st12" width="190.7" height="122.1"/>
			</g>
			<g>
				<path class="st13" d="M284.9,618.1v30.8h190.7v-34.9C412.4,620.6,347.8,627.1,284.9,618.1z"/>
			</g>
			<g>
				<path class="st5" d="M475.6,659.2H284.9c-5.7,0-10.3-4.6-10.3-10.3V526.8c0-5.7,4.6-10.3,10.3-10.3h190.7
					c5.7,0,10.3,4.6,10.3,10.3v122.1C485.9,654.6,481.3,659.2,475.6,659.2z M295.2,638.7h170.2V537.1H295.2V638.7z"/>
			</g>
			<g>
				<path class="st5" d="M324.3,647.7c-2.6,0-4.7-2.1-4.7-4.7V525.3c0-2.6,2.1-4.7,4.7-4.7s4.7,2.1,4.7,4.7v117.6
					C329,645.6,326.9,647.7,324.3,647.7z"/>
			</g>
			<g>
				<path class="st5" d="M440,647.7c-2.6,0-4.7-2.1-4.7-4.7V525.3c0-2.6,2.1-4.7,4.7-4.7s4.7,2.1,4.7,4.7v117.6
					C444.8,645.6,442.6,647.7,440,647.7z"/>
			</g>
			<g>
				<g>
					<path class="st5" d="M239.7,559.5h-57c-2.6,0-4.7-2.1-4.7-4.7c0-2.6,2.1-4.7,4.7-4.7h57c2.6,0,4.7,2.1,4.7,4.7
						C244.5,557.4,242.4,559.5,239.7,559.5z"/>
				</g>
				<g>
					<path class="st5" d="M258.1,598.1h-57c-2.6,0-4.7-2.1-4.7-4.7c0-2.6,2.1-4.7,4.7-4.7h57c2.6,0,4.7,2.1,4.7,4.7
						C262.9,596,260.7,598.1,258.1,598.1z"/>
				</g>
				<g>
					<path class="st5" d="M236.1,631.1h-57c-2.6,0-4.7-2.1-4.7-4.7c0-2.6,2.1-4.7,4.7-4.7h57c2.6,0,4.7,2.1,4.7,4.7
						C240.8,629,238.7,631.1,236.1,631.1z"/>
				</g>
			</g>
			<g>
				<g>
					<path class="st5" d="M576,559.5h-57c-2.6,0-4.7-2.1-4.7-4.7c0-2.6,2.1-4.7,4.7-4.7h57c2.6,0,4.7,2.1,4.7,4.7
						C580.7,557.4,578.6,559.5,576,559.5z"/>
				</g>
				<g>
					<path class="st5" d="M557.6,598.1h-57c-2.6,0-4.7-2.1-4.7-4.7c0-2.6,2.1-4.7,4.7-4.7h57c2.6,0,4.7,2.1,4.7,4.7
						C562.3,596,560.2,598.1,557.6,598.1z"/>
				</g>
				<g>
					<path class="st5" d="M579.6,631.1h-57c-2.6,0-4.7-2.1-4.7-4.7c0-2.6,2.1-4.7,4.7-4.7h57c2.6,0,4.7,2.1,4.7,4.7
						C584.4,629,582.3,631.1,579.6,631.1z"/>
				</g>
			</g>
		</g>
		<g>
			<g>
				<rect x="203.7" y="393" class="st10" width="474" height="129"/>
			</g>
			<g>
				<path class="st11" d="M263.5,484.2c-20.1-0.9-40-3.5-59.8-6.7V522h474v-67.6C545.4,508.7,401.4,488.8,263.5,484.2z"/>
			</g>
			<g>
				<path class="st5" d="M677.6,532.2h-474c-5.7,0-10.3-4.6-10.3-10.3V393c0-5.7,4.6-10.3,10.3-10.3h474c5.7,0,10.3,4.6,10.3,10.3
					v129C687.9,527.6,683.3,532.2,677.6,532.2z M214,511.7h453.4V403.2H214V511.7z"/>
			</g>
			<g>
				<rect x="346.7" y="397" class="st12" width="190.7" height="122.1"/>
			</g>
			<g>
				<path class="st13" d="M346.7,488.4v30.8h190.7v-34.9C474.2,490.8,409.6,497.3,346.7,488.4z"/>
			</g>
			<g>
				<path class="st5" d="M537.4,529.4H346.7c-5.7,0-10.3-4.6-10.3-10.3V397c0-5.7,4.6-10.3,10.3-10.3h190.7
					c5.7,0,10.3,4.6,10.3,10.3v122.1C547.7,524.8,543.1,529.4,537.4,529.4z M357,508.9h170.2V407.3H357V508.9z"/>
			</g>
			<g>
				<path class="st5" d="M386.1,517.9c-2.6,0-4.7-2.1-4.7-4.7V395.6c0-2.6,2.1-4.7,4.7-4.7c2.6,0,4.7,2.1,4.7,4.7v117.6
					C390.8,515.8,388.7,517.9,386.1,517.9z"/>
			</g>
			<g>
				<path class="st5" d="M501.8,517.9c-2.6,0-4.7-2.1-4.7-4.7V395.6c0-2.6,2.1-4.7,4.7-4.7c2.6,0,4.7,2.1,4.7,4.7v117.6
					C506.6,515.8,504.5,517.9,501.8,517.9z"/>
			</g>
			<g>
				<g>
					<path class="st5" d="M301.6,429.7h-57c-2.6,0-4.7-2.1-4.7-4.7s2.1-4.7,4.7-4.7h57c2.6,0,4.7,2.1,4.7,4.7
						S304.2,429.7,301.6,429.7z"/>
				</g>
				<g>
					<path class="st5" d="M319.9,468.3h-57c-2.6,0-4.7-2.1-4.7-4.7c0-2.6,2.1-4.7,4.7-4.7h57c2.6,0,4.7,2.1,4.7,4.7
						C324.7,466.2,322.5,468.3,319.9,468.3z"/>
				</g>
				<g>
					<path class="st5" d="M297.9,501.4h-57c-2.6,0-4.7-2.1-4.7-4.7c0-2.6,2.1-4.7,4.7-4.7h57c2.6,0,4.7,2.1,4.7,4.7
						C302.6,499.2,300.5,501.4,297.9,501.4z"/>
				</g>
			</g>
			<g>
				<g>
					<path class="st5" d="M637.8,429.7h-57c-2.6,0-4.7-2.1-4.7-4.7s2.1-4.7,4.7-4.7h57c2.6,0,4.7,2.1,4.7,4.7
						S640.4,429.7,637.8,429.7z"/>
				</g>
				<g>
					<path class="st5" d="M619.4,468.3h-57c-2.6,0-4.7-2.1-4.7-4.7c0-2.6,2.1-4.7,4.7-4.7h57c2.6,0,4.7,2.1,4.7,4.7
						C624.1,466.2,622,468.3,619.4,468.3z"/>
				</g>
				<g>
					<path class="st5" d="M641.4,501.4h-57c-2.6,0-4.7-2.1-4.7-4.7c0-2.6,2.1-4.7,4.7-4.7h57c2.6,0,4.7,2.1,4.7,4.7
						C646.2,499.2,644.1,501.4,641.4,501.4z"/>
				</g>
			</g>
		</g>
		<g>
			<g>
				<rect x="158.4" y="263.2" class="st10" width="474" height="129"/>
			</g>
			<g>
				<path class="st11" d="M218.2,354.4c-20.1-0.9-40-3.5-59.8-6.7v44.5h474v-67.6C500.1,378.9,356.1,359.1,218.2,354.4z"/>
			</g>
			<g>
				<path class="st5" d="M632.3,402.4h-474c-5.7,0-10.3-4.6-10.3-10.3v-129c0-5.7,4.6-10.3,10.3-10.3h474c5.7,0,10.3,4.6,10.3,10.3
					v129C642.6,397.8,638,402.4,632.3,402.4z M168.6,381.9H622V273.4H168.6V381.9z"/>
			</g>
			<g>
				<rect x="301.4" y="267.2" class="st12" width="190.7" height="122.1"/>
			</g>
			<g>
				<path class="st13" d="M301.4,358.6v30.8h190.7v-34.9C428.9,361,364.3,367.5,301.4,358.6z"/>
			</g>
			<g>
				<path class="st5" d="M492.1,399.6H301.4c-5.7,0-10.3-4.6-10.3-10.3V267.2c0-5.7,4.6-10.3,10.3-10.3h190.7
					c5.7,0,10.3,4.6,10.3,10.3v122.1C502.4,395,497.8,399.6,492.1,399.6z M311.7,379.1h170.2V277.5H311.7V379.1z"/>
			</g>
			<g>
				<path class="st5" d="M340.8,388.1c-2.6,0-4.7-2.1-4.7-4.7V265.8c0-2.6,2.1-4.7,4.7-4.7c2.6,0,4.7,2.1,4.7,4.7v117.6
					C345.5,386,343.4,388.1,340.8,388.1z"/>
			</g>
			<g>
				<path class="st5" d="M456.5,388.1c-2.6,0-4.7-2.1-4.7-4.7V265.8c0-2.6,2.1-4.7,4.7-4.7c2.6,0,4.7,2.1,4.7,4.7v117.6
					C461.3,386,459.1,388.1,456.5,388.1z"/>
			</g>
			<g>
				<g>
					<path class="st5" d="M256.2,299.9h-57c-2.6,0-4.7-2.1-4.7-4.7c0-2.6,2.1-4.7,4.7-4.7h57c2.6,0,4.7,2.1,4.7,4.7
						C261,297.8,258.8,299.9,256.2,299.9z"/>
				</g>
				<g>
					<path class="st5" d="M274.6,338.5h-57c-2.6,0-4.7-2.1-4.7-4.7c0-2.6,2.1-4.7,4.7-4.7h57c2.6,0,4.7,2.1,4.7,4.7
						C279.3,336.4,277.2,338.5,274.6,338.5z"/>
				</g>
				<g>
					<path class="st5" d="M252.6,371.6h-57c-2.6,0-4.7-2.1-4.7-4.7c0-2.6,2.1-4.7,4.7-4.7h57c2.6,0,4.7,2.1,4.7,4.7
						C257.3,369.5,255.2,371.6,252.6,371.6z"/>
				</g>
			</g>
			<g>
				<g>
					<path class="st5" d="M592.4,299.9h-57c-2.6,0-4.7-2.1-4.7-4.7c0-2.6,2.1-4.7,4.7-4.7h57c2.6,0,4.7,2.1,4.7,4.7
						C597.2,297.8,595.1,299.9,592.4,299.9z"/>
				</g>
				<g>
					<path class="st5" d="M574.1,338.5h-57c-2.6,0-4.7-2.1-4.7-4.7c0-2.6,2.1-4.7,4.7-4.7h57c2.6,0,4.7,2.1,4.7,4.7
						C578.8,336.4,576.7,338.5,574.1,338.5z"/>
				</g>
				<g>
					<path class="st5" d="M596.1,371.6h-57c-2.6,0-4.7-2.1-4.7-4.7c0-2.6,2.1-4.7,4.7-4.7h57c2.6,0,4.7,2.1,4.7,4.7
						C600.9,369.5,598.7,371.6,596.1,371.6z"/>
				</g>
			</g>
		</g>
		<g>
			<g>
				<rect x="272.8" y="133.9" class="st10" width="474" height="129"/>
			</g>
			<g>
				<path class="st11" d="M332.6,225.1c-20.1-0.9-40-3.5-59.8-6.7v44.5h474v-67.6C614.6,249.6,470.6,229.8,332.6,225.1z"/>
			</g>
			<g>
				<path class="st5" d="M746.8,273.1h-474c-5.7,0-10.3-4.6-10.3-10.3v-129c0-5.7,4.6-10.3,10.3-10.3h474c5.7,0,10.3,4.6,10.3,10.3
					v129C757.1,268.5,752.5,273.1,746.8,273.1z M283.1,252.6h453.4V144.1H283.1V252.6z"/>
			</g>
			<g>
				<rect x="415.9" y="137.9" class="st12" width="190.7" height="122.1"/>
			</g>
			<g>
				<path class="st13" d="M415.9,229.3v30.8h190.7v-34.9C543.4,231.7,478.7,238.2,415.9,229.3z"/>
			</g>
			<g>
				<path class="st5" d="M606.6,270.3H415.9c-5.7,0-10.3-4.6-10.3-10.3V137.9c0-5.7,4.6-10.3,10.3-10.3h190.7
					c5.7,0,10.3,4.6,10.3,10.3v122.1C616.8,265.7,612.2,270.3,606.6,270.3z M426.1,249.8h170.2V148.2H426.1V249.8z"/>
			</g>
			<g>
				<path class="st5" d="M455.2,258.8c-2.6,0-4.7-2.1-4.7-4.7V136.5c0-2.6,2.1-4.7,4.7-4.7c2.6,0,4.7,2.1,4.7,4.7v117.6
					C460,256.7,457.8,258.8,455.2,258.8z"/>
			</g>
			<g>
				<path class="st5" d="M571,258.8c-2.6,0-4.7-2.1-4.7-4.7V136.5c0-2.6,2.1-4.7,4.7-4.7c2.6,0,4.7,2.1,4.7,4.7v117.6
					C575.7,256.7,573.6,258.8,571,258.8z"/>
			</g>
			<g>
				<g>
					<path class="st5" d="M370.7,170.6h-57c-2.6,0-4.7-2.1-4.7-4.7c0-2.6,2.1-4.7,4.7-4.7h57c2.6,0,4.7,2.1,4.7,4.7
						C375.4,168.5,373.3,170.6,370.7,170.6z"/>
				</g>
				<g>
					<path class="st5" d="M389.1,209.2h-57c-2.6,0-4.7-2.1-4.7-4.7s2.1-4.7,4.7-4.7h57c2.6,0,4.7,2.1,4.7,4.7
						S391.7,209.2,389.1,209.2z"/>
				</g>
				<g>
					<path class="st5" d="M367,242.3h-57c-2.6,0-4.7-2.1-4.7-4.7c0-2.6,2.1-4.7,4.7-4.7h57c2.6,0,4.7,2.1,4.7,4.7
						C371.8,240.1,369.6,242.3,367,242.3z"/>
				</g>
			</g>
			<g>
				<g>
					<path class="st5" d="M706.9,170.6h-57c-2.6,0-4.7-2.1-4.7-4.7c0-2.6,2.1-4.7,4.7-4.7h57c2.6,0,4.7,2.1,4.7,4.7
						C711.7,168.5,709.5,170.6,706.9,170.6z"/>
				</g>
				<g>
					<path class="st5" d="M688.5,209.2h-57c-2.6,0-4.7-2.1-4.7-4.7s2.1-4.7,4.7-4.7h57c2.6,0,4.7,2.1,4.7,4.7
						S691.2,209.2,688.5,209.2z"/>
				</g>
				<g>
					<path class="st5" d="M710.6,242.3h-57c-2.6,0-4.7-2.1-4.7-4.7c0-2.6,2.1-4.7,4.7-4.7h57c2.6,0,4.7,2.1,4.7,4.7
						C715.3,240.1,713.2,242.3,710.6,242.3z"/>
				</g>
			</g>
		</g>
	</g>
	<g class="st1">
		<g>
			<g>
				<rect x="484.1" y="552.6" class="st14" width="307.8" height="63"/>
			</g>
			<g>
				<path class="st15" d="M642.2,552.6H484.1v63h88.1c3.5-2.4,6.9-4.7,10.4-7.1C606.7,592.5,626,573.7,642.2,552.6z"/>
			</g>
			<g>
				<path class="st16" d="M642.2,552.6c-16.3,21.1-35.5,39.9-59.5,55.9c-3.5,2.3-7,4.7-10.4,7.1h119.3c20.4-18.7,38.7-39.9,54-63
					H642.2z"/>
			</g>
			<g>
				<path class="st5" d="M791.9,625.9H484.1c-5.7,0-10.3-4.6-10.3-10.3v-63c0-5.7,4.6-10.3,10.3-10.3h307.8
					c5.7,0,10.3,4.6,10.3,10.3v63C802.2,621.3,797.6,625.9,791.9,625.9z M494.4,605.3h287.2v-42.4H494.4V605.3z"/>
			</g>
		</g>
		<g>
			<g>
				<rect x="484.1" y="615.6" class="st14" width="307.8" height="63"/>
			</g>
			<g>
				<path class="st15" d="M642.2,615.6H484.1v63h88.1c3.5-2.4,6.9-4.7,10.4-7.1C606.7,655.5,626,636.7,642.2,615.6z"/>
			</g>
			<g>
				<path class="st16" d="M642.2,615.6c-16.3,21.1-35.5,39.9-59.5,55.9c-3.5,2.3-7,4.7-10.4,7.1h119.3c20.4-18.7,38.7-39.9,54-63
					H642.2z"/>
			</g>
			<g>
				<path class="st5" d="M791.9,688.8H484.1c-5.7,0-10.3-4.6-10.3-10.3v-63c0-5.7,4.6-10.3,10.3-10.3h307.8
					c5.7,0,10.3,4.6,10.3,10.3v63C802.2,684.2,797.6,688.8,791.9,688.8z M494.4,668.3h287.2v-42.4H494.4V668.3z"/>
			</g>
		</g>
		<g>
			<g>
				<rect x="436.9" y="678.6" class="st14" width="307.8" height="63"/>
			</g>
			<g>
				<path class="st15" d="M595,678.6H436.9v63H525c3.5-2.4,6.9-4.7,10.4-7.1C559.5,718.5,578.7,699.7,595,678.6z"/>
			</g>
			<g>
				<path class="st16" d="M595,678.6c-16.3,21.1-35.5,39.9-59.5,55.9c-3.5,2.3-7,4.7-10.4,7.1h119.3c20.4-18.7,38.7-39.9,54-63H595z
					"/>
			</g>
			<g>
				<path class="st5" d="M744.7,751.8H436.9c-5.7,0-10.3-4.6-10.3-10.3v-63c0-5.7,4.6-10.3,10.3-10.3h307.8
					c5.7,0,10.3,4.6,10.3,10.3v63C755,747.2,750.4,751.8,744.7,751.8z M447.2,731.3h287.2v-42.4H447.2V731.3z"/>
			</g>
		</g>
	</g>
	<g class="st1">
		<g>
			<g>
				<rect x="82" y="425.1" class="st14" width="307.8" height="63"/>
			</g>
			<g>
				<path class="st15" d="M240.1,425.1H82v63h88.1c3.5-2.4,6.9-4.7,10.4-7.1C204.6,465,223.9,446.2,240.1,425.1z"/>
			</g>
			<g>
				<path class="st16" d="M240.1,425.1c-16.3,21.1-35.5,39.9-59.5,55.9c-3.5,2.3-7,4.7-10.4,7.1h119.3c20.4-18.7,38.7-39.9,54-63
					H240.1z"/>
			</g>
			<g>
				<path class="st5" d="M389.8,498.4H82c-5.7,0-10.3-4.6-10.3-10.3v-63c0-5.7,4.6-10.3,10.3-10.3h307.8c5.7,0,10.3,4.6,10.3,10.3
					v63C400.1,493.8,395.5,498.4,389.8,498.4z M92.3,477.8h287.2v-42.4H92.3V477.8z"/>
			</g>
		</g>
		<g>
			<g>
				<rect x="53.7" y="491.3" class="st14" width="307.8" height="63"/>
			</g>
			<g>
				<path class="st15" d="M211.8,491.3H53.7v63h88.1c3.5-2.4,6.9-4.7,10.4-7.1C176.2,531.1,195.5,512.4,211.8,491.3z"/>
			</g>
			<g>
				<path class="st16" d="M211.8,491.3c-16.3,21.1-35.5,39.9-59.5,55.9c-3.5,2.3-7,4.7-10.4,7.1h119.3c20.4-18.7,38.7-39.9,54-63
					H211.8z"/>
			</g>
			<g>
				<path class="st5" d="M361.5,564.5H53.7c-5.7,0-10.3-4.6-10.3-10.3v-63c0-5.7,4.6-10.3,10.3-10.3h307.8c5.7,0,10.3,4.6,10.3,10.3
					v63C371.7,559.9,367.1,564.5,361.5,564.5z M63.9,543.9h287.2v-42.4H63.9V543.9z"/>
			</g>
		</g>
		<g>
			<g>
				<rect x="113.5" y="554.2" class="st14" width="307.8" height="63"/>
			</g>
			<g>
				<path class="st15" d="M271.6,554.2H113.5v63h88.1c3.5-2.4,6.9-4.7,10.4-7.1C236.1,594.1,255.3,575.3,271.6,554.2z"/>
			</g>
			<g>
				<path class="st16" d="M271.6,554.2c-16.3,21.1-35.5,39.9-59.5,55.9c-3.5,2.3-7,4.7-10.4,7.1h119.3c20.4-18.7,38.7-39.9,54-63
					H271.6z"/>
			</g>
			<g>
				<path class="st5" d="M421.3,627.5H113.5c-5.7,0-10.3-4.6-10.3-10.3v-63c0-5.7,4.6-10.3,10.3-10.3h307.8
					c5.7,0,10.3,4.6,10.3,10.3v63C431.6,622.9,427,627.5,421.3,627.5z M123.8,606.9H411v-42.4H123.8V606.9z"/>
			</g>
		</g>
		<g>
			<g>
				<rect x="113.5" y="617.2" class="st14" width="307.8" height="63"/>
			</g>
			<g>
				<path class="st15" d="M271.6,617.2H113.5v63h88.1c3.5-2.4,6.9-4.7,10.4-7.1C236.1,657.1,255.3,638.3,271.6,617.2z"/>
			</g>
			<g>
				<path class="st16" d="M271.6,617.2c-16.3,21.1-35.5,39.9-59.5,55.9c-3.5,2.3-7,4.7-10.4,7.1h119.3c20.4-18.7,38.7-39.9,54-63
					H271.6z"/>
			</g>
			<g>
				<path class="st5" d="M421.3,690.4H113.5c-5.7,0-10.3-4.6-10.3-10.3v-63c0-5.7,4.6-10.3,10.3-10.3h307.8
					c5.7,0,10.3,4.6,10.3,10.3v63C431.6,685.8,427,690.4,421.3,690.4z M123.8,669.9H411v-42.4H123.8V669.9z"/>
			</g>
		</g>
		<g>
			<g>
				<rect x="66.3" y="680.2" class="st14" width="307.8" height="63"/>
			</g>
			<g>
				<path class="st15" d="M224.4,680.2H66.3v63h88.1c3.5-2.4,6.9-4.7,10.4-7.1C188.8,720.1,208.1,701.3,224.4,680.2z"/>
			</g>
			<g>
				<path class="st16" d="M224.4,680.2c-16.3,21.1-35.5,39.9-59.5,55.9c-3.5,2.3-7,4.7-10.4,7.1h119.3c20.4-18.7,38.7-39.9,54-63
					H224.4z"/>
			</g>
			<g>
				<path class="st5" d="M374.1,753.4H66.3c-5.7,0-10.3-4.6-10.3-10.3v-63c0-5.7,4.6-10.3,10.3-10.3h307.8c5.7,0,10.3,4.6,10.3,10.3
					v63C384.3,748.8,379.7,753.4,374.1,753.4z M76.5,732.9h287.2v-42.4H76.5V732.9z"/>
			</g>
		</g>
	</g>
	<g class="st1">
		<g>
			<ellipse class="st16" cx="432.5" cy="598.2" rx="146.5" ry="144.9"/>
		</g>
		<g>
			<path class="st14" d="M540.4,500.3c-28.6,94.7-104.8,170.1-195,214.5c24.3,17.8,54.5,28.4,87.1,28.4
				c80.9,0,146.5-64.9,146.5-144.9C579,560.4,564.4,526,540.4,500.3z"/>
		</g>
		<g>
			<ellipse class="st17" cx="432.5" cy="598.2" rx="93.8" ry="92.7"/>
			<path class="st5" d="M432.5,697.5c-55.3,0-100.4-44.5-100.4-99.3c0-54.8,45-99.3,100.4-99.3s100.4,44.5,100.4,99.3
				C532.8,653,487.8,697.5,432.5,697.5z M432.5,512c-48.1,0-87.2,38.6-87.2,86.2c0,47.5,39.1,86.2,87.2,86.2s87.2-38.6,87.2-86.2
				C519.7,550.7,480.5,512,432.5,512z"/>
		</g>
		<g>
			<ellipse class="st18" cx="350.7" cy="523.3" rx="35.9" ry="35.5"/>
		</g>
		<g>
			<g>
				<path class="st5" d="M423.8,669c-1-0.9-1.5-2.4-1.5-4.5v-7.5c-14.3-1.2-24.7-4.1-31.5-8.7c-1.4-1-2.2-1.9-2.2-2.6
					c0-0.4,0.3-1.1,0.8-2l5.3-8.5c0.7-1,1.3-1.5,1.8-1.5c0.6,0,1.3,0.3,2.2,0.8c4.5,2.4,9.5,4.3,15,5.7c5.5,1.4,10.9,2,16.3,2
					c7.8,0,13.5-1.3,17-3.9c3.5-2.6,5.2-6.5,5.2-11.6c0-3.5-0.8-6.3-2.5-8.4c-1.7-2.1-4-3.9-7.1-5.3c-3.1-1.5-8.2-3.5-15.2-6
					c-10.5-3.7-18.9-8.2-25.4-13.5c-6.4-5.3-9.6-12.3-9.6-21.1c0-8.6,2.6-15.5,7.8-20.5c5.2-5,12.5-8.2,22-9.5v-8.2
					c0-2.1,0.5-3.6,1.5-4.6c1-1,2.6-1.5,4.8-1.5h7.3c2.2,0,3.8,0.5,4.8,1.5c1,1,1.5,2.5,1.5,4.6v7.7c5.9,0.3,10.9,1.1,15.1,2.5
					c4.2,1.3,8,3.2,11.3,5.6c1.3,1,2,1.9,2,2.6c0,0.8-0.2,1.4-0.7,2l-5.1,8.2c-0.7,1-1.3,1.5-1.8,1.5c-0.4,0-1.1-0.3-2-0.8
					c-3.1-2.1-6.9-3.7-11.5-4.8c-4.6-1.1-9.6-1.7-15-1.7c-7,0-12.2,1.2-15.7,3.7c-3.5,2.5-5.2,6.5-5.2,12c0,3.2,0.7,5.7,2.2,7.6
					c1.4,1.9,3.4,3.5,6,4.8c2.5,1.3,6.4,2.9,11.6,4.8l7,2.6c8.5,3.3,15.1,6.4,19.6,9.3c4.6,2.9,8,6.3,10.2,10.3
					c2.2,4,3.3,9.1,3.3,15.3c0,8-2.7,14.6-8,19.8c-5.3,5.2-13,8.5-23.2,9.8v7.5c0,2.1-0.5,3.6-1.4,4.5c-0.9,0.9-2.6,1.4-4.9,1.4
					h-7.3C426.4,670.4,424.8,669.9,423.8,669z"/>
			</g>
		</g>
		<g>
			<path class="st5" d="M432.5,753.4c-86.5,0-156.8-69.6-156.8-155.2S346,443,432.5,443s156.8,69.6,156.8,155.2
				S518.9,753.4,432.5,753.4z M432.5,463.6c-75.1,0-136.3,60.4-136.3,134.6c0,74.2,61.1,134.6,136.3,134.6s136.3-60.4,136.3-134.6
				C568.7,524,507.6,463.6,432.5,463.6z"/>
		</g>
	</g>
</g>
<g id="Layer_4">
	<g>
		<g>
			<g>
				<path class="st19" d="M737.1,736.4l-498,78.2c-13,2-25.2-6.8-27.3-19.9L109.2,141.2c-2-13,6.8-25.2,19.9-27.3l498-78.2
					c13-2,25.2,6.8,27.3,19.9L757,709.1C759,722.2,750.1,734.4,737.1,736.4z"/>
			</g>
			<g>
				<path class="st20" d="M574.3,44.1l-3.3,0.5c8.4,27.5,7.4,59.9,9.6,87.2c9.9,118.1-19.1,232-74.5,343
					c-48.5,99.6-138,148.3-238.4,183.2c-24.3,8.2-49.1,15-74.2,20.1l10,63.9c6.6,42.2,46.2,71,88.3,64.4l392.4-61.6
					c42.2-6.6,71-46.2,64.4-88.3l-86.1-547.9C656,66.3,616.4,37.4,574.3,44.1z"/>
			</g>
			<g>
				<path class="st5" d="M686,755.7l-392.4,61.6c-48.2,7.6-93.5-25.5-101.1-73.6l-86.1-547.9c-7.6-48.2,25.5-93.5,73.6-101.1
					l392.4-61.6c48.2-7.6,93.5,25.5,101.1,73.6l86.1,547.9C767.2,702.8,734.2,748.1,686,755.7z M183.6,116.7
					c-36,5.7-60.7,39.6-55.1,75.6l86.1,547.9c5.7,36,39.6,60.7,75.6,55.1l392.4-61.6c36-5.7,60.7-39.6,55.1-75.6l-86.1-547.9
					c-5.7-36-39.6-60.7-75.6-55.1L183.6,116.7z"/>
			</g>
		</g>
		<g>
			<path class="st21" d="M612.7,186.3l-423.8,66.6c-4.7,0.7-9-2.4-9.7-7.1l-12.4-78.7c-0.7-4.7,2.4-9,7.1-9.7l423.8-66.6
				c4.7-0.7,9,2.4,9.7,7.1l12.4,78.7C620.5,181.2,617.3,185.6,612.7,186.3z"/>
			<path class="st5" d="M595.5,200.3l-386,60.6c-21.1,3.3-41-11.2-44.3-32.3l-6.4-40.9c-3.3-21.1,11.2-41,32.3-44.3l386-60.6
				c21.1-3.3,41,11.2,44.3,32.3l6.4,40.9C631.1,177.1,616.7,197,595.5,200.3z M194.5,165.4c-9,1.4-15.1,9.9-13.7,18.8l6.4,40.9
				c1.4,9,9.9,15.1,18.8,13.7l386-60.6c9-1.4,15.1-9.9,13.7-18.8l-6.4-40.9c-1.4-9-9.9-15.1-18.8-13.7L194.5,165.4z"/>
		</g>
		<g>
			<g>
				<path class="st22" d="M287.3,381l-74.2,11.7c-2.9,0.5-5.6-1.5-6.1-4.4l-12.4-78.7c-0.5-2.9,1.5-5.6,4.4-6.1l74.2-11.7
					c2.9-0.5,5.6,1.5,6.1,4.4l12.4,78.7C292.2,377.8,290.2,380.5,287.3,381z"/>
				<path class="st5" d="M277.3,393.8l-50.7,8c-15.4,2.4-30-8.2-32.4-23.6l-8.7-55.2c-2.4-15.4,8.2-30,23.6-32.4l50.7-8
					c15.4-2.4,30,8.2,32.4,23.6l8.7,55.2C303.3,376.9,292.7,391.4,277.3,393.8z M212.6,312.6c-3.3,0.5-5.6,3.6-5.1,6.9l8.7,55.2
					c0.5,3.3,3.6,5.6,6.9,5.1l50.7-8c3.3-0.5,5.6-3.6,5.1-6.9l-8.7-55.2c-0.5-3.3-3.6-5.6-6.9-5.1L212.6,312.6z"/>
			</g>
			<g>
				<path class="st22" d="M404.7,362.5l-74.2,11.7c-2.9,0.5-5.6-1.5-6.1-4.4l-12.4-78.7c-0.5-2.9,1.5-5.6,4.4-6.1l74.2-11.7
					c2.9-0.5,5.6,1.5,6.1,4.4l12.4,78.7C409.5,359.4,407.6,362.1,404.7,362.5z"/>
				<path class="st5" d="M394.6,375.4l-50.7,8c-15.4,2.4-30-8.2-32.4-23.6l-8.7-55.2c-2.4-15.4,8.2-30,23.6-32.4l50.7-8
					c15.4-2.4,30,8.2,32.4,23.6l8.7,55.2C420.7,358.4,410.1,373,394.6,375.4z M330,294.2c-3.3,0.5-5.6,3.6-5.1,6.9l8.7,55.2
					c0.5,3.3,3.6,5.6,6.9,5.1l50.7-8c3.3-0.5,5.6-3.6,5.1-6.9l-8.7-55.2c-0.5-3.3-3.6-5.6-6.9-5.1L330,294.2z"/>
			</g>
			<g>
				<path class="st22" d="M520.5,344.3L446.4,356c-2.9,0.5-5.6-1.5-6.1-4.4l-12.4-78.7c-0.5-2.9,1.5-5.6,4.4-6.1l74.2-11.7
					c2.9-0.5,5.6,1.5,6.1,4.4l12.4,78.7C525.4,341.2,523.4,343.9,520.5,344.3z"/>
				<path class="st5" d="M510.5,357.2l-50.7,8c-15.4,2.4-30-8.2-32.4-23.6l-8.7-55.2c-2.4-15.4,8.2-30,23.6-32.4l50.7-8
					c15.4-2.4,30,8.2,32.4,23.6l8.7,55.2C536.5,340.2,525.9,354.8,510.5,357.2z M445.8,276c-3.3,0.5-5.6,3.6-5.1,6.9l8.7,55.2
					c0.5,3.3,3.6,5.6,6.9,5.1l50.7-8c3.3-0.5,5.6-3.6,5.1-6.9l-8.7-55.2c-0.5-3.3-3.6-5.6-6.9-5.1L445.8,276z"/>
			</g>
			<g>
				<path class="st23" d="M632.5,326.8l-74.2,11.7c-2.9,0.5-5.6-1.5-6.1-4.4l-12.4-78.7c-0.5-2.9,1.5-5.6,4.4-6.1l74.2-11.7
					c2.9-0.5,5.6,1.5,6.1,4.4l12.4,78.7C637.4,323.6,635.4,326.3,632.5,326.8z"/>
				<path class="st5" d="M622.5,339.6l-50.7,8c-15.4,2.4-30-8.2-32.4-23.6l-8.7-55.2c-2.4-15.4,8.2-30,23.6-32.4l50.7-8
					c15.4-2.4,30,8.2,32.4,23.6l8.7,55.2C648.5,322.7,637.9,337.2,622.5,339.6z M557.8,258.4c-3.3,0.5-5.6,3.6-5.1,6.9l8.7,55.2
					c0.5,3.3,3.6,5.6,6.9,5.1l50.7-8c3.3-0.5,5.6-3.6,5.1-6.9l-8.7-55.2c-0.5-3.3-3.6-5.6-6.9-5.1L557.8,258.4z"/>
			</g>
		</g>
		<g>
			<g>
				<path class="st21" d="M307.3,508.3L233.1,520c-2.9,0.5-5.6-1.5-6.1-4.4l-12.4-78.7c-0.5-2.9,1.5-5.6,4.4-6.1l74.2-11.7
					c2.9-0.5,5.6,1.5,6.1,4.4l12.4,78.7C312.2,505.2,310.2,507.9,307.3,508.3z"/>
				<path class="st5" d="M297.3,521.2l-50.7,8c-15.4,2.4-30-8.2-32.4-23.6l-8.7-55.2c-2.4-15.4,8.2-30,23.6-32.4l50.7-8
					c15.4-2.4,30,8.2,32.4,23.6l8.7,55.2C323.3,504.2,312.7,518.8,297.3,521.2z M232.6,440c-3.3,0.5-5.6,3.6-5.1,6.9l8.7,55.2
					c0.5,3.3,3.6,5.6,6.9,5.1l50.7-8c3.3-0.5,5.6-3.6,5.1-6.9l-8.7-55.2c-0.5-3.3-3.6-5.6-6.9-5.1L232.6,440z"/>
			</g>
			<g>
				<path class="st21" d="M424.7,489.9l-74.2,11.7c-2.9,0.5-5.6-1.5-6.1-4.4l-12.4-78.7c-0.5-2.9,1.5-5.6,4.4-6.1l74.2-11.7
					c2.9-0.5,5.6,1.5,6.1,4.4l12.4,78.7C429.5,486.7,427.6,489.4,424.7,489.9z"/>
				<path class="st5" d="M414.6,502.7l-50.7,8c-15.4,2.4-30-8.2-32.4-23.6l-8.7-55.2c-2.4-15.4,8.2-30,23.6-32.4l50.7-8
					c15.4-2.4,30,8.2,32.4,23.6l8.7,55.2C440.7,485.8,430.1,500.3,414.6,502.7z M350,421.6c-3.3,0.5-5.6,3.6-5.1,6.9l8.7,55.2
					c0.5,3.3,3.6,5.6,6.9,5.1l50.7-8c3.3-0.5,5.6-3.6,5.1-6.9l-8.7-55.2c-0.5-3.3-3.6-5.6-6.9-5.1L350,421.6z"/>
			</g>
			<g>
				<path class="st21" d="M540.5,471.7l-74.2,11.7c-2.9,0.5-5.6-1.5-6.1-4.4l-12.4-78.7c-0.5-2.9,1.5-5.6,4.4-6.1l74.2-11.7
					c2.9-0.5,5.6,1.5,6.1,4.4l12.4,78.7C545.4,468.5,543.4,471.2,540.5,471.7z"/>
				<path class="st5" d="M530.5,484.5l-50.7,8c-15.4,2.4-30-8.2-32.4-23.6l-8.7-55.2c-2.4-15.4,8.2-30,23.6-32.4l50.7-8
					c15.4-2.4,30,8.2,32.4,23.6l8.7,55.2C556.5,467.6,546,482.1,530.5,484.5z M465.8,403.4c-3.3,0.5-5.6,3.6-5.1,6.9l8.7,55.2
					c0.5,3.3,3.6,5.6,6.9,5.1l50.7-8c3.3-0.5,5.6-3.6,5.1-6.9l-8.7-55.2c-0.5-3.3-3.6-5.6-6.9-5.1L465.8,403.4z"/>
			</g>
			<g>
				<path class="st22" d="M652.5,454.1l-74.2,11.7c-2.9,0.5-5.6-1.5-6.1-4.4l-12.4-78.7c-0.5-2.9,1.5-5.6,4.4-6.1l74.2-11.7
					c2.9-0.5,5.6,1.5,6.1,4.4l12.4,78.7C657.4,450.9,655.4,453.7,652.5,454.1z"/>
				<path class="st5" d="M642.5,467l-50.7,8c-15.4,2.4-30-8.2-32.4-23.6l-8.7-55.2c-2.4-15.4,8.2-30,23.6-32.4l50.7-8
					c15.4-2.4,30,8.2,32.4,23.6l8.7,55.2C668.5,450,657.9,464.5,642.5,467z M577.8,385.8c-3.3,0.5-5.6,3.6-5.1,6.9l8.7,55.2
					c0.5,3.3,3.6,5.6,6.9,5.1l50.7-8c3.3-0.5,5.6-3.6,5.1-6.9l-8.7-55.2c-0.5-3.3-3.6-5.6-6.9-5.1L577.8,385.8z"/>
			</g>
		</g>
		<g>
			<g>
				<path class="st21" d="M326.3,629.1l-74.2,11.7c-2.9,0.5-5.6-1.5-6.1-4.4l-12.4-78.7c-0.5-2.9,1.5-5.6,4.4-6.1l74.2-11.7
					c2.9-0.5,5.6,1.5,6.1,4.4l12.4,78.7C331.2,625.9,329.2,628.6,326.3,629.1z"/>
				<path class="st5" d="M316.3,641.9l-50.7,8c-15.4,2.4-30-8.2-32.4-23.6l-8.7-55.2c-2.4-15.4,8.2-30,23.6-32.4l50.7-8
					c15.4-2.4,30,8.2,32.4,23.6l8.7,55.2C342.3,625,331.7,639.5,316.3,641.9z M251.6,560.7c-3.3,0.5-5.6,3.6-5.1,6.9l8.7,55.2
					c0.5,3.3,3.6,5.6,6.9,5.1l50.7-8c3.3-0.5,5.6-3.6,5.1-6.9l-8.7-55.2c-0.5-3.3-3.6-5.6-6.9-5.1L251.6,560.7z"/>
			</g>
			<g>
				<path class="st21" d="M443.6,610.6l-74.2,11.7c-2.9,0.5-5.6-1.5-6.1-4.4L351,539.2c-0.5-2.9,1.5-5.6,4.4-6.1l74.2-11.7
					c2.9-0.5,5.6,1.5,6.1,4.4l12.4,78.7C448.5,607.5,446.5,610.2,443.6,610.6z"/>
				<path class="st5" d="M433.6,623.5l-50.7,8c-15.4,2.4-30-8.2-32.4-23.6l-8.7-55.2c-2.4-15.4,8.2-30,23.6-32.4l50.7-8
					c15.4-2.4,30,8.2,32.4,23.6l8.7,55.2C459.6,606.5,449.1,621.1,433.6,623.5z M368.9,542.3c-3.3,0.5-5.6,3.6-5.1,6.9l8.7,55.2
					c0.5,3.3,3.6,5.6,6.9,5.1l50.7-8c3.3-0.5,5.6-3.6,5.1-6.9l-8.7-55.2c-0.5-3.3-3.6-5.6-6.9-5.1L368.9,542.3z"/>
			</g>
			<g>
				<path class="st21" d="M559.5,592.4l-74.2,11.7c-2.9,0.5-5.6-1.5-6.1-4.4L466.9,521c-0.5-2.9,1.5-5.6,4.4-6.1l74.2-11.7
					c2.9-0.5,5.6,1.5,6.1,4.4l12.4,78.7C564.4,589.3,562.4,592,559.5,592.4z"/>
				<path class="st5" d="M549.5,605.3l-50.7,8c-15.4,2.4-30-8.2-32.4-23.6l-8.7-55.2c-2.4-15.4,8.2-30,23.6-32.4l50.7-8
					c15.4-2.4,30,8.2,32.4,23.6l8.7,55.2C575.5,588.3,564.9,602.9,549.5,605.3z M484.8,524.1c-3.3,0.5-5.6,3.6-5.1,6.9l8.7,55.2
					c0.5,3.3,3.6,5.6,6.9,5.1l50.7-8c3.3-0.5,5.6-3.6,5.1-6.9l-8.7-55.2c-0.5-3.3-3.6-5.6-6.9-5.1L484.8,524.1z"/>
			</g>
			<g>
				<path class="st22" d="M671.4,574.9l-74.2,11.7c-2.9,0.5-5.6-1.5-6.1-4.4l-12.4-78.7c-0.5-2.9,1.5-5.6,4.4-6.1l74.2-11.7
					c2.9-0.5,5.6,1.5,6.1,4.4l12.4,78.7C676.3,571.7,674.3,574.4,671.4,574.9z"/>
				<path class="st5" d="M661.4,587.7l-50.7,8c-15.4,2.4-30-8.2-32.4-23.6l-8.7-55.2c-2.4-15.4,8.2-30,23.6-32.4l50.7-8
					c15.4-2.4,30,8.2,32.4,23.6l8.7,55.2C687.4,570.8,676.9,585.3,661.4,587.7z M596.7,506.5c-3.3,0.5-5.6,3.6-5.1,6.9l8.7,55.2
					c0.5,3.3,3.6,5.6,6.9,5.1l50.7-8c3.3-0.5,5.6-3.6,5.1-6.9l-8.7-55.2c-0.5-3.3-3.6-5.6-6.9-5.1L596.7,506.5z"/>
			</g>
		</g>
		<g>
			<g>
				<path class="st21" d="M345.5,751.7l-74.2,11.7c-2.9,0.5-5.6-1.5-6.1-4.4l-12.4-78.7c-0.5-2.9,1.5-5.6,4.4-6.1l74.2-11.7
					c2.9-0.5,5.6,1.5,6.1,4.4l12.4,78.7C350.4,748.5,348.4,751.2,345.5,751.7z"/>
				<path class="st5" d="M335.5,764.5l-50.7,8c-15.4,2.4-30-8.2-32.4-23.6l-8.7-55.2c-2.4-15.4,8.2-30,23.6-32.4l50.7-8
					c15.4-2.4,30,8.2,32.4,23.6l8.7,55.2C361.5,747.5,351,762.1,335.5,764.5z M270.8,683.3c-3.3,0.5-5.6,3.6-5.1,6.9l8.7,55.2
					c0.5,3.3,3.6,5.6,6.9,5.1l50.7-8c3.3-0.5,5.6-3.6,5.1-6.9l-8.7-55.2c-0.5-3.3-3.6-5.6-6.9-5.1L270.8,683.3z"/>
			</g>
			<g>
				<path class="st21" d="M462.9,733.2l-74.2,11.7c-2.9,0.5-5.6-1.5-6.1-4.4l-12.4-78.7c-0.5-2.9,1.5-5.6,4.4-6.1l74.2-11.7
					c2.9-0.5,5.6,1.5,6.1,4.4l12.4,78.7C467.8,730.1,465.8,732.8,462.9,733.2z"/>
				<path class="st5" d="M452.9,746.1l-50.7,8c-15.4,2.4-30-8.2-32.4-23.6l-8.7-55.2c-2.4-15.4,8.2-30,23.6-32.4l50.7-8
					c15.4-2.4,30,8.2,32.4,23.6l8.7,55.2C478.9,729.1,468.3,743.6,452.9,746.1z M388.2,664.9c-3.3,0.5-5.6,3.6-5.1,6.9l8.7,55.2
					c0.5,3.3,3.6,5.6,6.9,5.1l50.7-8c3.3-0.5,5.6-3.6,5.1-6.9l-8.7-55.2c-0.5-3.3-3.6-5.6-6.9-5.1L388.2,664.9z"/>
			</g>
			<g>
				<path class="st21" d="M578.8,715l-74.2,11.7c-2.9,0.5-5.6-1.5-6.1-4.4l-12.4-78.7c-0.5-2.9,1.5-5.6,4.4-6.1l74.2-11.7
					c2.9-0.5,5.6,1.5,6.1,4.4l12.4,78.7C583.6,711.9,581.7,714.6,578.8,715z"/>
				<path class="st5" d="M568.7,727.9l-50.7,8c-15.4,2.4-30-8.2-32.4-23.6l-8.7-55.2c-2.4-15.4,8.2-30,23.6-32.4l50.7-8
					c15.4-2.4,30,8.2,32.4,23.6l8.7,55.2C594.8,710.9,584.2,725.4,568.7,727.9z M504.1,646.7c-3.3,0.5-5.6,3.6-5.1,6.9l8.7,55.2
					c0.5,3.3,3.6,5.6,6.9,5.1l50.7-8c3.3-0.5,5.6-3.6,5.1-6.9l-8.7-55.2c-0.5-3.3-3.6-5.6-6.9-5.1L504.1,646.7z"/>
			</g>
			<g>
				<path class="st22" d="M690.7,697.4l-74.2,11.7c-2.9,0.5-5.6-1.5-6.1-4.4L598.1,626c-0.5-2.9,1.5-5.6,4.4-6.1l74.2-11.7
					c2.9-0.5,5.6,1.5,6.1,4.4l12.4,78.7C695.6,694.3,693.6,697,690.7,697.4z"/>
				<path class="st5" d="M680.7,710.3l-50.7,8c-15.4,2.4-30-8.2-32.4-23.6l-8.7-55.2c-2.4-15.4,8.2-30,23.6-32.4l50.7-8
					c15.4-2.4,30,8.2,32.4,23.6l8.7,55.2C706.7,693.3,696.1,707.9,680.7,710.3z M616,629.1c-3.3,0.5-5.6,3.6-5.1,6.9l8.7,55.2
					c0.5,3.3,3.6,5.6,6.9,5.1l50.7-8c3.3-0.5,5.6-3.6,5.1-6.9l-8.7-55.2c-0.5-3.3-3.6-5.6-6.9-5.1L616,629.1z"/>
			</g>
		</g>
	</g>
</g>
<g id="Layer_5" class="st0">
</g>
</svg>
