<?xml version="1.0" encoding="utf-8"?>
<!-- Generator: Adobe Illustrator 21.0.0, SVG Export Plug-In . SVG Version: 6.00 Build 0)  -->
<svg version="1.1" xmlns="http://www.w3.org/2000/svg" xmlns:xlink="http://www.w3.org/1999/xlink" x="0px" y="0px"
	 viewBox="0 0 850.4 850.4" style="enable-background:new 0 0 850.4 850.4;" xml:space="preserve">
<style type="text/css">
	.st0{display:none;}
	.st1{display:inline;}
	.st2{fill:#FBD851;}
	.st3{fill:#FFFFFF;}
	.st4{fill:#F9B839;}
	.st5{fill:#2C130E;}
	.st6{fill:#FDEBF1;}
	.st7{fill:#DC2727;}
	.st8{fill:#ED737A;}
	.st9{fill:#FEE3D7;}
</style>
<g id="Layer_1" class="st0">
	<g class="st1">
		<g>
			<g>
				<g>
					<circle class="st2" cx="424.9" cy="424.8" r="393.6"/>
				</g>
			</g>
			<g>
				
					<ellipse transform="matrix(0.9611 -0.2762 0.2762 0.9611 -16.7079 95.8414)" class="st3" cx="331.9" cy="107.2" rx="50.3" ry="31"/>
			</g>
			<g>
				<path class="st4" d="M681.1,126c-15.4,203.3-185.2,363.5-392.5,363.5c-97.9,0-187.4-35.7-256.2-94.8c-0.8,10-1.1,20-1.1,30.2
					c0,217.4,176.2,393.6,393.6,393.6c217.4,0,393.6-176.2,393.6-393.6C818.5,305.2,765.2,198.1,681.1,126z"/>
			</g>
			<g>
				<g>
					<path class="st5" d="M424.9,827.2c-54.3,0-107-10.6-156.7-31.6c-47.9-20.3-91-49.3-127.9-86.2c-37-37-66-80-86.2-127.9
						c-21-49.6-31.6-102.3-31.6-156.7c0-54.3,10.6-107,31.6-156.7c20.3-47.9,49.3-91,86.2-127.9c37-37,80-66,127.9-86.2
						c49.6-21,102.3-31.6,156.7-31.6c54.3,0,107,10.6,156.7,31.6c47.9,20.3,91,49.3,127.9,86.2c37,37,66,80,86.2,127.9
						c21,49.6,31.6,102.3,31.6,156.7c0,54.3-10.6,107-31.6,156.7c-20.3,47.9-49.3,91-86.2,127.9c-37,37-80,66-127.9,86.2
						C531.9,816.6,479.2,827.2,424.9,827.2z M424.9,40c-52,0-102.3,10.2-149.8,30.2c-45.8,19.4-87,47.1-122.3,82.5
						C117.5,188,89.7,229.2,70.3,275c-20.1,47.4-30.2,97.8-30.2,149.8s10.2,102.3,30.2,149.8c19.4,45.8,47.1,87,82.5,122.3
						c35.3,35.3,76.5,63.1,122.3,82.5c47.4,20.1,97.8,30.2,149.8,30.2s102.3-10.2,149.8-30.2c45.8-19.4,87-47.1,122.3-82.5
						c35.3-35.3,63.1-76.5,82.5-122.3c20.1-47.4,30.2-97.8,30.2-149.8S799.5,322.4,779.5,275c-19.4-45.8-47.1-87-82.5-122.3
						c-35.3-35.3-76.5-63.1-122.3-82.5C527.2,50.1,476.8,40,424.9,40z"/>
				</g>
			</g>
			<g>
				<path class="st3" d="M424.9,792.1c-49.6,0-97.7-9.7-143-28.9c-43.7-18.5-83-45-116.8-78.7c-33.7-33.7-60.2-73-78.7-116.8
					c-19.2-45.3-28.9-93.4-28.9-143c0-49.6,9.7-97.7,28.9-143c18.5-43.7,45-83,78.7-116.8c33.7-33.7,73-60.2,116.8-78.7
					c45.3-19.2,93.4-28.9,143-28.9c49.6,0,97.7,9.7,143,28.9c43.7,18.5,83,45,116.8,78.7c33.7,33.7,60.2,73,78.7,116.8
					c19.2,45.3,28.9,93.4,28.9,143c0,49.6-9.7,97.7-28.9,143c-18.5,43.7-45,83-78.7,116.8c-33.7,33.7-73,60.2-116.8,78.7
					C522.6,782.4,474.5,792.1,424.9,792.1z M424.9,62.8c-48.9,0-96.3,9.6-140.9,28.4c-43.1,18.2-81.8,44.3-115.1,77.6
					c-33.2,33.2-59.3,72-77.6,115.1c-18.9,44.6-28.4,92-28.4,140.9c0,48.9,9.6,96.3,28.4,140.9c18.2,43.1,44.3,81.8,77.6,115.1
					c33.2,33.2,72,59.3,115.1,77.6c44.6,18.9,92,28.4,140.9,28.4c48.9,0,96.3-9.6,140.9-28.4c43.1-18.2,81.8-44.3,115.1-77.6
					c33.2-33.2,59.3-72,77.6-115.1c18.9-44.6,28.4-92,28.4-140.9c0-48.9-9.6-96.3-28.4-140.9c-18.2-43.1-44.3-81.8-77.6-115.1
					c-33.2-33.2-72-59.3-115.1-77.6C521.2,72.4,473.8,62.8,424.9,62.8z"/>
			</g>
		</g>
		<g>
			<g>
				<g>
					<path class="st4" d="M424.9,165.1c143.2,0,259.6,116.5,259.6,259.6c0,143.2-116.5,259.6-259.6,259.6
						c-143.2,0-259.6-116.5-259.6-259.6C165.3,281.6,281.7,165.1,424.9,165.1z"/>
				</g>
			</g>
			<g>
				<path class="st2" d="M298.3,361.2C425.5,289.6,565.4,279,664,323.5c-39.5-93-131.8-158.4-239.1-158.4
					c-143.2,0-259.6,116.5-259.6,259.6c0,13.8,1.1,27.3,3.2,40.4C203.3,425.8,247.1,390.1,298.3,361.2z"/>
			</g>
			<g>
				<path class="st3" d="M208.7,396.5c-0.1,0-0.2,0-0.2,0c-1.9-0.1-3.3-1.7-3.2-3.6c1-14.4,4-28.6,9.1-42.2c0.7-1.8,2.6-2.6,4.4-2
					c1.8,0.7,2.6,2.6,2,4.4c-4.9,12.9-7.8,26.5-8.7,40.2C212,395.2,210.5,396.5,208.7,396.5z"/>
			</g>
			<g>
				<path class="st3" d="M228.3,333c-0.6,0-1.3-0.2-1.9-0.6c-1.6-1-2-3.1-1-4.7l18.1-27.4c1-1.6,3.1-2,4.7-1c1.6,1,2,3.1,1,4.7
					l-18.1,27.4C230.4,332.5,229.4,333,228.3,333z"/>
			</g>
			<g>
				<ellipse class="st3" cx="370.8" cy="242.5" rx="76" ry="49.2"/>
			</g>
			<g>
				<g>
					<path class="st5" d="M424.9,689.8c-146.2,0-265.1-118.9-265.1-265.1c0-146.2,118.9-265.1,265.1-265.1
						c146.2,0,265.1,118.9,265.1,265.1C690,570.9,571.1,689.8,424.9,689.8z M424.9,170.6c-140.2,0-254.2,114-254.2,254.2
						S284.7,679,424.9,679c140.2,0,254.2-114,254.2-254.2S565.1,170.6,424.9,170.6z"/>
				</g>
			</g>
			<g>
				<path class="st3" d="M424.9,668.2c-65,0-126.1-25.3-172.1-71.3c-46-46-71.3-107.1-71.3-172.1c0-65,25.3-126.1,71.3-172.1
					c46-46,107.1-71.3,172.1-71.3c65,0,126.1,25.3,172.1,71.3c46,46,71.3,107.1,71.3,172.1c0,65-25.3,126.1-71.3,172.1
					C551,642.8,489.9,668.2,424.9,668.2z M424.9,186.8c-63.6,0-123.3,24.8-168.3,69.7c-44.9,44.9-69.7,104.7-69.7,168.3
					c0,63.6,24.8,123.3,69.7,168.3c44.9,44.9,104.7,69.7,168.3,69.7c63.6,0,123.3-24.8,168.3-69.7c44.9-44.9,69.7-104.7,69.7-168.3
					c0-63.6-24.8-123.3-69.7-168.3C548.2,211.6,488.5,186.8,424.9,186.8z"/>
			</g>
		</g>
		<g>
			<g>
				<path class="st5" d="M407.4,595.8c-2.4-2.3-3.6-6-3.6-11.1v-18.5c-34.6-3-60-10.1-76.4-21.3c-3.5-2.4-5.2-4.6-5.2-6.4
					c0-1.1,0.7-2.7,2-4.8l12.9-20.9c1.6-2.4,3.1-3.6,4.4-3.6c1.3,0,3.1,0.7,5.2,2c11,5.9,23.1,10.5,36.4,13.9
					c13.3,3.4,26.5,5,39.6,5c19,0,32.8-3.2,41.2-9.6c8.4-6.4,12.7-15.9,12.7-28.5c0-8.6-2-15.4-6-20.5c-4-5.1-9.8-9.4-17.3-13.1
					c-7.5-3.6-19.8-8.5-37-14.7c-25.5-9.1-46-20.2-61.5-33.2c-15.5-13-23.3-30.2-23.3-51.7c0-21.2,6.3-37.9,18.9-50.3
					c12.6-12.3,30.4-20.1,53.5-23.3v-20.1c0-5.1,1.2-8.8,3.6-11.3c2.4-2.4,6.3-3.6,11.7-3.6h17.7c5.4,0,9.2,1.2,11.7,3.6
					c2.4,2.4,3.6,6.2,3.6,11.3v18.9c14.2,0.8,26.4,2.8,36.6,6c10.2,3.2,19.3,7.8,27.3,13.7c3.2,2.4,4.8,4.6,4.8,6.4
					c0,1.9-0.5,3.5-1.6,4.8l-12.5,20.1c-1.6,2.4-3.1,3.6-4.4,3.6c-1.1,0-2.7-0.7-4.8-2c-7.5-5.1-16.8-9-27.9-11.9
					c-11.1-2.8-23.3-4.2-36.4-4.2c-16.9,0-29.5,3-38,9c-8.4,6-12.7,15.9-12.7,29.5c0,7.8,1.7,14,5.2,18.7c3.5,4.7,8.3,8.6,14.5,11.7
					c6.2,3.1,15.5,7,28.1,11.9l16.9,6.4c20.6,8,36.5,15.6,47.6,22.7c11.1,7.1,19.4,15.5,24.7,25.3c5.4,9.8,8,22.3,8,37.6
					c0,19.6-6.4,35.8-19.3,48.6c-12.9,12.9-31.6,20.9-56.3,24.1v18.5c0,5.1-1.1,8.8-3.4,11.1c-2.3,2.3-6.2,3.4-11.9,3.4h-17.7
					C413.7,599.2,409.8,598.1,407.4,595.8z"/>
			</g>
		</g>
		<g>
			<g>
				<g>
					<path class="st5" d="M155.4,382.3c-0.2,0-0.4,0-0.6-0.1l-55-9.7c-1.8-0.3-3.1-2.1-2.8-3.9c0.3-1.8,2.1-3.1,3.9-2.8l55,9.7
						c1.8,0.3,3.1,2.1,2.8,3.9C158.5,381.2,157,382.3,155.4,382.3z"/>
				</g>
			</g>
			<g>
				<g>
					<path class="st5" d="M312.2,739.5c-0.4,0-0.8-0.1-1.2-0.2c-1.8-0.6-2.7-2.6-2-4.4l19.1-52.5c0.6-1.8,2.6-2.7,4.4-2
						c1.8,0.6,2.7,2.6,2,4.4l-19.1,52.5C314.9,738.6,313.6,739.5,312.2,739.5z"/>
				</g>
			</g>
			<g>
				<g>
					<path class="st5" d="M710.3,594.6c-0.6,0-1.2-0.1-1.7-0.5l-48.4-27.9c-1.6-0.9-2.2-3-1.2-4.6c0.9-1.6,3-2.2,4.6-1.2l48.4,27.9
						c1.6,0.9,2.2,3,1.2,4.6C712.6,594,711.4,594.6,710.3,594.6z"/>
				</g>
			</g>
			<g>
				<g>
					<path class="st5" d="M600.8,220.2c-0.8,0-1.5-0.3-2.2-0.8c-1.4-1.2-1.6-3.4-0.4-4.8l35.9-42.8c1.2-1.4,3.4-1.6,4.8-0.4
						c1.4,1.2,1.6,3.3,0.4,4.8L603.4,219C602.7,219.8,601.8,220.2,600.8,220.2z"/>
				</g>
			</g>
			<g>
				<g>
					<path class="st5" d="M249,220.2c-1,0-1.9-0.4-2.6-1.2l-35.9-42.8c-1.2-1.4-1-3.6,0.4-4.8c1.4-1.2,3.6-1,4.8,0.4l35.9,42.8
						c1.2,1.4,1,3.6-0.4,4.8C250.6,219.9,249.8,220.2,249,220.2z"/>
				</g>
			</g>
			<g>
				<g>
					<path class="st5" d="M139.5,594.6c-1.2,0-2.3-0.6-2.9-1.7c-0.9-1.6-0.4-3.7,1.2-4.6l48.4-27.9c1.6-0.9,3.7-0.4,4.6,1.2
						c0.9,1.6,0.4,3.7-1.2,4.6l-48.4,27.9C140.7,594.4,140.1,594.6,139.5,594.6z"/>
				</g>
			</g>
			<g>
				<g>
					<path class="st5" d="M537.6,739.5c-1.4,0-2.7-0.9-3.2-2.2l-19.1-52.5c-0.6-1.8,0.3-3.7,2-4.4c1.8-0.6,3.7,0.3,4.4,2l19.1,52.5
						c0.6,1.8-0.3,3.7-2,4.4C538.4,739.4,538,739.5,537.6,739.5z"/>
				</g>
			</g>
			<g>
				<g>
					<path class="st5" d="M694.4,382.3c-1.6,0-3.1-1.2-3.3-2.8c-0.3-1.8,0.9-3.6,2.8-3.9l55-9.7c1.8-0.3,3.6,0.9,3.9,2.8
						c0.3,1.8-0.9,3.6-2.8,3.9l-55,9.7C694.8,382.3,694.6,382.3,694.4,382.3z"/>
				</g>
			</g>
			<g>
				<g>
					<path class="st5" d="M424.9,156.2c-1.9,0-3.4-1.5-3.4-3.4V96.9c0-1.9,1.5-3.4,3.4-3.4c1.9,0,3.4,1.5,3.4,3.4v55.9
						C428.3,154.7,426.8,156.2,424.9,156.2z"/>
				</g>
			</g>
		</g>
	</g>
</g>
<g id="Layer_2">
	<g id="heart_icon_00000046319987270865631990000000426828623490283683_">
		<g>
			<path class="st6" d="M575.2,124.9L116.9,289.6C51.8,313,18,384.7,41.4,449.8l72.3,201.1c23.4,65.1,95.1,98.9,160.2,75.5
				l329.5-118.4l72.9,49.9c36.8,25.2,86.1-5.2,80.1-49.4l-7.4-54.3c137.4-71.5,12.1-253.2-13.6-353.8
				C712,135.3,640.2,101.5,575.2,124.9z"/>
			<path class="st5" d="M231.4,744.6c-55.9,0.5-109.7-36.9-127.9-90.1c0,0-72.3-201.1-72.3-201.1c-12.3-34.2-10.5-71.1,5-104
				c15.5-32.9,42.8-57.7,77-70l458.3-164.7c68.3-26.1,150.7,12.7,174,82c0,0,72.3,201.1,72.3,201.1c22.2,59-3,130.2-57.1,162.1
				l6.4,47c9,51.7-54.8,91-96.9,59.8c0,0-68.3-46.8-68.3-46.8C572.9,627.3,253.3,753.3,231.4,744.6z M578.8,135.1L120.5,299.8
				c-58.3,19.6-91,88.9-68.9,146.3c0,0,72.3,201.1,72.3,201.1c10.3,28.8,31.2,51.8,58.9,64.8c27.6,13,58.7,14.5,87.4,4.2
				l329.5-118.4c3.3-1.2,6.9-0.7,9.8,1.3l72.9,49.9c16.1,11,33.4,7.8,44.3,1.1c31.9-16.6,13.6-65.9,11.6-94.4
				c-0.6-4.5,1.6-8.9,5.6-11c129.3-68.2,3.8-245.5-18.7-340.6C705.5,145.7,636.3,113.1,578.8,135.1z M575.2,124.9L575.2,124.9
				L575.2,124.9z"/>
		</g>
		<g>
			<path class="st7" d="M562.5,469.6c-18.9,44.4-52.8,90.3-99.2,108.6c-98.1,27.5-233.6-45.7-252.1-149
				c-11.3-108,142-144.6,182.7-44.9C363.3,191.6,666.2,226.8,562.5,469.6z"/>
			<path class="st8" d="M397.6,519.7C487.9,475,538.7,342,466.3,262c-54.9,9.9-89.7,69.4-72.3,122.2c-40.7-99.7-194-63-182.7,44.9
				C228.2,525.2,308.6,563.1,397.6,519.7z"/>
			<path class="st9" d="M311.4,392.9c14.7,41.5-51.8,65.4-66.9,24C229.8,375.4,296.3,351.5,311.4,392.9z"/>
			<path class="st5" d="M422.7,597.1c-94.1-3.2-207-66.1-223.4-166.7c-11.4-96.4,109.7-156.3,179.1-88.8
				c10-95.8,142.7-127.7,195.1-45.8C637.2,404.7,548.4,596.4,422.7,597.1z M304.5,336.8c-47.3-0.7-86.6,44.4-81.1,91.1
				c-1.3,77.1,161.9,172.8,235.6,138.9c17.7-7,62.1-30.8,92.4-102l0,0c95.7-223.6-173.1-252.8-145.8-84.3c2,6.2-1.2,12.8-7.3,15.1
				C375.5,403.3,377.3,337.9,304.5,336.8z M562.5,469.6L562.5,469.6L562.5,469.6z"/>
		</g>
	</g>
</g>
</svg>
