<?xml version="1.0" encoding="utf-8"?>
<!-- Generator: Adobe Illustrator 21.0.0, SVG Export Plug-In . SVG Version: 6.00 Build 0)  -->
<svg version="1.1" id="Layer_1" xmlns="http://www.w3.org/2000/svg" xmlns:xlink="http://www.w3.org/1999/xlink" x="0px" y="0px"
	 viewBox="0 0 300 100" style="enable-background:new 0 0 300 100;" xml:space="preserve">
<g id="Layer_1_1_">
</g>
<g id="Layer_2_1_">
	<g id="Layer_3">
		<g>
			<path d="M6.6,77.9H1.3v-2.6H15v2.6H9.7v13.6h-3L6.6,77.9L6.6,77.9z"/>
			<path d="M29.3,88.9v2.5H17.2V75.3H29v2.5h-8.8V82H28v2.5h-7.8v4.4H29.3L29.3,88.9z"/>
			<path d="M35.6,90.6c-1.3-0.7-2.4-1.7-3.1-3c-0.8-1.2-1.1-2.7-1.1-4.3s0.3-3,1.1-4.3c0.8-1.2,1.8-2.2,3.1-3c1.3-0.7,2.8-1,4.4-1
				c1.3,0,2.6,0.2,3.6,0.7c1.1,0.5,2,1.1,2.8,2l-1.9,1.8c-1.2-1.2-2.6-1.9-4.3-1.9c-1.1,0-2.1,0.2-3,0.7s-1.6,1.2-2.1,2
				s-0.8,1.9-0.8,2.9s0.3,2.1,0.8,2.9s1.2,1.5,2.1,2s1.9,0.7,3,0.7c1.7,0,3.1-0.6,4.3-1.9l1.9,1.9c-0.8,0.9-1.7,1.5-2.8,2
				s-2.3,0.7-3.6,0.7C38.4,91.7,36.9,91.4,35.6,90.6z"/>
			<path d="M63.6,75.4v16.1h-3v-6.9h-8.3v6.9h-3V75.4h3V82h8.3v-6.6H63.6z"/>
			<path d="M82.2,75.4v16.1h-2.5l-8.8-10.9v10.9h-3V75.4h2.5l8.8,10.9v-11L82.2,75.4L82.2,75.4z"/>
			<path d="M89.6,90.6c-1.3-0.7-2.4-1.7-3.1-3s-1.1-2.7-1.1-4.2s0.3-3,1.1-4.2c0.8-1.2,1.8-2.3,3.1-3c1.3-0.7,2.8-1,4.4-1
				c1.7,0,3.1,0.3,4.4,1s2.4,1.7,3.1,3s1.1,2.7,1.1,4.3s-0.3,3-1.1,4.3c-0.8,1.2-1.8,2.2-3.1,3c-1.3,0.8-2.8,1-4.4,1
				C92.5,91.7,91,91.4,89.6,90.6z M97,88.3c0.8-0.5,1.5-1.2,2-2c0.5-0.9,0.8-1.9,0.8-2.9s-0.3-2.1-0.8-2.9c-0.5-0.9-1.2-1.5-2-2
				s-1.8-0.7-2.9-0.7S92,78,91.2,78.5s-1.5,1.2-2,2c-0.5,0.9-0.8,1.9-0.8,2.9s0.3,2.1,0.8,2.9c0.5,0.9,1.2,1.5,2,2S93,89,94.1,89
				C95.2,89.1,96.1,88.8,97,88.3z"/>
			<path d="M106,75.4h3V89h8.4v2.6H106V75.4z"/>
			<path d="M122.6,90.6c-1.3-0.7-2.4-1.7-3.1-3s-1.1-2.7-1.1-4.2s0.3-3,1.1-4.2c0.8-1.2,1.8-2.3,3.1-3s2.8-1,4.4-1
				c1.6,0,3.1,0.3,4.4,1c1.3,0.7,2.4,1.7,3.1,3c0.8,1.2,1.1,2.7,1.1,4.3s-0.3,3-1.1,4.3c-0.8,1.2-1.8,2.2-3.1,3s-2.8,1-4.4,1
				C125.3,91.7,123.9,91.4,122.6,90.6z M129.9,88.3c0.8-0.5,1.5-1.2,2-2c0.5-0.9,0.8-1.9,0.8-2.9s-0.3-2.1-0.8-2.9
				c-0.5-0.9-1.2-1.5-2-2s-1.8-0.7-2.9-0.7c-1.1,0-2.1,0.2-2.9,0.7s-1.5,1.2-2,2c-0.5,0.9-0.8,1.9-0.8,2.9s0.3,2.1,0.8,2.9
				c0.5,0.9,1.2,1.5,2,2s1.8,0.7,2.9,0.7C128,89.1,129,88.8,129.9,88.3z"/>
			<path d="M149.8,83.2h2.8v6.4c-0.8,0.7-1.8,1.2-2.9,1.5c-1.1,0.3-2.2,0.6-3.4,0.6c-1.7,0-3.1-0.3-4.4-1c-1.3-0.7-2.4-1.7-3.1-3
				c-0.8-1.2-1.1-2.7-1.1-4.3s0.3-3,1.1-4.3c0.8-1.2,1.8-2.2,3.1-3s2.8-1,4.5-1c1.4,0,2.6,0.2,3.7,0.7c1.1,0.4,2,1.1,2.8,1.9
				l-1.9,1.9c-1.2-1.2-2.7-1.9-4.4-1.9c-1.1,0-2.1,0.2-3,0.7s-1.6,1.2-2.1,2s-0.8,1.9-0.8,3s0.3,2.1,0.8,2.9s1.2,1.5,2.1,2
				s1.9,0.8,3,0.8c1.2,0,2.4-0.3,3.3-0.8L149.8,83.2L149.8,83.2z"/>
			<path d="M156.6,75.4h3v16.1h-3V75.4z"/>
			<path d="M176,88.9v2.5h-12.1V75.3h11.8v2.5h-8.8V82h7.8v2.5h-7.8v4.4H176L176,88.9z"/>
			<path d="M180.8,91.2c-1.2-0.3-2.1-0.8-2.8-1.4l1-2.4c0.7,0.6,1.5,1,2.4,1.2c1,0.3,1.9,0.5,2.9,0.5c1.2,0,2.1-0.2,2.7-0.6
				s0.9-0.9,0.9-1.5c0-0.5-0.1-0.8-0.5-1.1s-0.8-0.6-1.2-0.7s-1.2-0.3-2.1-0.6c-1.2-0.3-2.2-0.6-3-0.9s-1.4-0.8-1.9-1.4
				c-0.6-0.6-0.8-1.5-0.8-2.5c0-0.9,0.2-1.7,0.7-2.4c0.5-0.8,1.2-1.3,2.2-1.7c1-0.4,2.1-0.6,3.6-0.6c1,0,1.9,0.1,2.9,0.3
				c1,0.3,1.8,0.6,2.5,1l-1,2.4c-0.7-0.4-1.5-0.8-2.2-1c-0.8-0.2-1.5-0.3-2.2-0.3c-1.2,0-2.1,0.2-2.6,0.6c-0.6,0.4-0.8,0.9-0.8,1.6
				c0,0.5,0.1,0.8,0.5,1.1s0.8,0.6,1.2,0.7c0.5,0.1,1.2,0.3,2.1,0.6c1.2,0.3,2.2,0.6,3,0.8c0.8,0.3,1.5,0.8,1.9,1.4
				c0.6,0.6,0.8,1.5,0.8,2.5c0,0.9-0.2,1.7-0.7,2.4c-0.5,0.7-1.2,1.3-2.2,1.7c-1,0.4-2.2,0.6-3.6,0.6
				C183.1,91.7,181.9,91.5,180.8,91.2z"/>
			<path d="M211.2,83.2h2.8v6.4c-0.8,0.7-1.8,1.2-2.9,1.5c-1.1,0.3-2.2,0.6-3.4,0.6c-1.7,0-3.1-0.3-4.4-1c-1.3-0.7-2.4-1.7-3.1-3
				c-0.8-1.2-1.1-2.7-1.1-4.3s0.3-3,1.1-4.3c0.8-1.2,1.8-2.2,3.1-3s2.8-1,4.5-1c1.4,0,2.6,0.2,3.7,0.7c1.1,0.4,2,1.1,2.8,1.9
				l-1.9,1.9c-1.2-1.2-2.7-1.9-4.4-1.9c-1.1,0-2.1,0.2-3,0.7s-1.6,1.2-2.1,2s-0.8,1.9-0.8,3s0.3,2.1,0.8,2.9s1.2,1.5,2.1,2
				s1.9,0.8,3,0.8c1.2,0,2.4-0.3,3.3-0.8L211.2,83.2L211.2,83.2z"/>
			<path d="M228.5,91.5l-3.3-4.7c-0.1,0-0.3,0-0.6,0h-3.7v4.7h-3V75.4h6.6c1.4,0,2.6,0.2,3.7,0.7c1,0.5,1.8,1.1,2.4,2
				c0.6,0.8,0.8,1.9,0.8,3c0,1.2-0.3,2.3-0.9,3.1s-1.5,1.5-2.6,1.9l3.7,5.3L228.5,91.5L228.5,91.5z M227.4,78.7
				c-0.7-0.6-1.7-0.8-3-0.8h-3.5v6.4h3.5c1.3,0,2.3-0.3,3-0.8c0.7-0.6,1-1.4,1-2.4C228.4,80.1,228.1,79.3,227.4,78.7z"/>
			<path d="M237.9,90.6c-1.3-0.7-2.4-1.7-3.1-3c-0.8-1.2-1.1-2.7-1.1-4.2s0.3-3,1.1-4.2s1.8-2.3,3.1-3s2.8-1,4.4-1s3.1,0.3,4.4,1
				c1.3,0.7,2.4,1.7,3.1,3s1.1,2.7,1.1,4.3s-0.3,3-1.1,4.3c-0.8,1.2-1.8,2.2-3.1,3c-1.3,0.7-2.8,1-4.4,1S239.2,91.4,237.9,90.6z
				 M245.2,88.3c0.8-0.5,1.5-1.2,2-2c0.5-0.9,0.8-1.9,0.8-2.9s-0.3-2.1-0.8-2.9c-0.5-0.9-1.2-1.5-2-2s-1.8-0.7-2.9-0.7
				c-1.1,0-2.1,0.2-2.9,0.7c-0.8,0.5-1.5,1.2-2,2s-0.8,1.9-0.8,2.9s0.3,2.1,0.8,2.9s1.2,1.5,2,2s1.8,0.7,2.9,0.7
				S244.3,88.8,245.2,88.3z"/>
			<path d="M255.8,89.8c-1.2-1.2-1.9-3-1.9-5.4v-9.1h3v9c0,3.2,1.4,4.8,4.1,4.8s4.1-1.6,4.1-4.8v-9h3v9.1c0,2.4-0.6,4.1-1.9,5.4
				s-3,1.9-5.2,1.9C258.8,91.7,257.1,91.1,255.8,89.8z"/>
			<path d="M282.6,76.1c1,0.5,1.8,1.1,2.4,2c0.6,0.8,0.8,1.9,0.8,3c0,1.2-0.3,2.2-0.8,3c-0.6,0.8-1.3,1.5-2.4,2
				c-1,0.5-2.3,0.7-3.7,0.7h-3.7v4.6h-3v-16h6.6C280.3,75.4,281.6,75.6,282.6,76.1z M281.8,83.5c0.7-0.6,1-1.3,1-2.4s-0.3-1.8-1-2.4
				s-1.7-0.8-3-0.8h-3.5v6.4h3.5C280.1,84.3,281.1,84,281.8,83.5z"/>
		</g>
	</g>
	<g id="Layer_2">
		<path d="M33.4,34.4c-2.5-1-5.6-1.9-9.4-2.8c-2.8-0.7-5-1.3-6.6-1.9s-3-1.2-4-2.2c-1-0.9-1.6-2.1-1.6-3.6c0-2.1,0.9-3.8,2.8-5.1
			c1.9-1.2,4.6-1.9,8.4-1.9c2.3,0,4.7,0.3,7.1,1c2.5,0.7,4.8,1.7,7.1,3l3-7.5c-2.2-1.5-4.8-2.6-7.9-3.4c-3-0.8-6.2-1.2-9.3-1.2
			C18.6,9,14.7,9.6,11.6,11s-5.5,3.2-7,5.5c-1.5,2.4-2.4,4.9-2.4,7.7c0,3.4,0.9,6.1,2.6,8.1s3.8,3.5,6.3,4.4
			c2.4,0.9,5.6,1.9,9.5,2.8c2.8,0.7,5,1.3,6.6,1.9c1.6,0.6,3,1.3,4,2.2c1,1,1.6,2.1,1.6,3.7c0,2-1,3.7-2.8,4.8
			c-1.9,1.2-4.8,1.9-8.6,1.9c-3.1,0-6.2-0.6-9.3-1.6c-3-1-5.7-2.4-7.7-4.1L1,55.9c2.1,1.9,5.1,3.4,8.8,4.5s7.5,1.7,11.5,1.7
			c4.5,0,8.4-0.7,11.5-2.1c3.1-1.4,5.5-3.2,7.1-5.5c1.5-2.3,2.4-4.9,2.4-7.7c0-3.3-0.9-6-2.6-8C38,36.8,35.9,35.4,33.4,34.4z"/>
		<polygon points="67.8,9.8 44.6,61.4 54.5,61.4 72.4,19.4 82.1,41.9 66.6,49.4 85.3,49.4 90.5,61.4 100.5,61.4 77.2,9.8 		"/>
		<polygon points="124.6,49.5 107.4,9.8 97,9.8 119.6,61.4 129,61.4 151.5,9.8 141.9,9.8 		"/>
		<rect x="218.4" y="9.8" width="9.6" height="51.6"/>
		<path d="M274.1,44.4c3.5-1.4,6.2-3.5,8.2-6.3c1.9-2.8,2.8-6.2,2.8-10s-0.9-7.1-2.6-9.8c-1.8-2.8-4.3-4.8-7.6-6.4
			c-3.3-1.5-7.2-2.2-11.7-2.2H242v51.6h9.6V17.9h11.2c4.1,0,7.3,0.9,9.5,2.6c2.1,1.8,3.2,4.3,3.2,7.6s-1.1,5.8-3.2,7.6
			s-5.3,2.7-9.5,2.7h-3l16,22.9h10.3L274.1,44.4z"/>
		<path d="M166.2,58.7c-4.2-2.3-7.5-5.5-10-9.5c-2.4-4.1-3.6-8.6-3.6-13.6s1.2-9.5,3.6-13.6c2.4-4.1,5.7-7.2,10-9.5
			c4.2-2.3,9-3.5,14.2-3.5s10,1.2,14.2,3.5s7.5,5.5,10,9.5s3.6,8.6,3.6,13.6s-1.2,9.6-3.6,13.6s-5.7,7.2-10,9.5
			c-4.2,2.3-9,3.5-14.2,3.5C175.2,62.1,170.5,60.9,166.2,58.7z M189.8,51.3c2.8-1.5,4.9-3.7,6.5-6.5s2.4-5.9,2.4-9.3
			s-0.8-6.6-2.4-9.3c-1.6-2.8-3.7-4.9-6.5-6.5c-2.8-1.5-5.9-2.4-9.3-2.4c-3.5,0-6.5,0.8-9.3,2.4c-2.8,1.5-4.9,3.7-6.5,6.5
			s-2.4,5.9-2.4,9.3s0.8,6.6,2.4,9.3s3.7,4.9,6.5,6.5c2.8,1.5,5.9,2.4,9.3,2.4C183.9,53.7,187,52.9,189.8,51.3z"/>
	</g>
</g>
</svg>
