<?xml version="1.0" encoding="utf-8"?>
<!-- Generator: Adobe Illustrator 21.0.0, SVG Export Plug-In . SVG Version: 6.00 Build 0)  -->
<svg version="1.1" xmlns="http://www.w3.org/2000/svg" xmlns:xlink="http://www.w3.org/1999/xlink" x="0px" y="0px"
	 viewBox="0 0 500 500" style="enable-background:new 0 0 500 500;" xml:space="preserve">
<style type="text/css">
	.st0{display:none;}
	.st1{display:inline;}
	.st2{fill:none;stroke:#C24CCC;stroke-width:0.5;stroke-miterlimit:10;}
	.st3{fill:#081233;}
	.st4{fill:#A30D23;}
</style>
<g id="Layer_1" class="st0">
	<g class="st1">
		
			<rect x="114.7" y="201.8" transform="matrix(-1.836970e-16 1 -1 -1.836970e-16 385.1646 64.2188)" class="st2" width="91.5" height="45.8"/>
		
			<rect x="46" y="178.9" transform="matrix(-1.836970e-16 1 -1 -1.836970e-16 316.5108 132.8726)" class="st2" width="91.5" height="91.5"/>
		
			<rect x="252" y="201.8" transform="matrix(-1.836970e-16 1 -1 -1.836970e-16 522.4723 -73.0889)" class="st2" width="91.5" height="45.8"/>
		
			<rect x="183.4" y="178.9" transform="matrix(-1.836970e-16 1 -1 -1.836970e-16 453.8185 -4.4351)" class="st2" width="91.5" height="91.5"/>
		
			<rect x="389.3" y="201.8" transform="matrix(-1.836970e-16 1 -1 -1.836970e-16 659.78 -210.3966)" class="st2" width="91.5" height="45.8"/>
		
			<rect x="320.7" y="178.9" transform="matrix(-1.836970e-16 1 -1 -1.836970e-16 591.1262 -141.7428)" class="st2" width="91.5" height="91.5"/>
	</g>
	<g class="st1">
		
			<rect x="137.6" y="270.5" transform="matrix(-1.836970e-16 1 -1 -1.836970e-16 453.8185 132.8726)" class="st2" width="45.8" height="45.8"/>
		
			<rect x="68.9" y="247.6" transform="matrix(-1.836970e-16 1 -1 -1.836970e-16 385.1647 201.5264)" class="st2" width="45.8" height="91.5"/>
		
			<rect x="274.9" y="270.5" transform="matrix(-1.836970e-16 1 -1 -1.836970e-16 591.1262 -4.4351)" class="st2" width="45.8" height="45.8"/>
		
			<rect x="206.2" y="247.6" transform="matrix(-1.836970e-16 1 -1 -1.836970e-16 522.4724 64.2187)" class="st2" width="45.8" height="91.5"/>
		
			<rect x="412.2" y="270.5" transform="matrix(-1.836970e-16 1 -1 -1.836970e-16 728.4339 -141.7428)" class="st2" width="45.8" height="45.8"/>
		
			<rect x="343.5" y="247.6" transform="matrix(-1.836970e-16 1 -1 -1.836970e-16 659.78 -73.089)" class="st2" width="45.8" height="91.5"/>
	</g>
</g>
<g id="Layer_3">
	<g>
		<path class="st3" d="M53.9,285.9h-7.7v-3.7H66v3.7h-7.7v19.6h-4.3V285.9z"/>
		<path class="st3" d="M86.7,301.9v3.6H69.2v-23.3h17v3.6H73.5v6.1h11.3v3.6H73.5v6.4H86.7z"/>
		<path class="st3" d="M95.8,304.3c-1.9-1-3.4-2.5-4.5-4.3c-1.1-1.8-1.6-3.9-1.6-6.2s0.5-4.3,1.6-6.2c1.1-1.8,2.6-3.2,4.5-4.3
			c1.9-1,4-1.5,6.4-1.5c1.9,0,3.7,0.3,5.2,1c1.6,0.7,2.9,1.6,4,2.9l-2.8,2.6c-1.7-1.8-3.8-2.7-6.2-2.7c-1.6,0-3,0.3-4.3,1
			c-1.3,0.7-2.3,1.7-3,2.9c-0.7,1.2-1.1,2.7-1.1,4.2s0.4,3,1.1,4.2c0.7,1.2,1.7,2.2,3,2.9c1.3,0.7,2.7,1,4.3,1
			c2.5,0,4.5-0.9,6.2-2.8l2.8,2.7c-1.1,1.3-2.4,2.2-4,2.9s-3.3,1-5.2,1C99.9,305.9,97.7,305.4,95.8,304.3z"/>
		<path class="st3" d="M136.3,282.3v23.3H132v-10H120v10h-4.3v-23.3h4.3v9.6H132v-9.6H136.3z"/>
		<path class="st3" d="M163.3,282.3v23.3h-3.6l-12.8-15.8v15.8h-4.3v-23.3h3.6L159,298v-15.8H163.3z"/>
		<path class="st3" d="M174,304.3c-1.9-1-3.4-2.5-4.5-4.3c-1.1-1.8-1.6-3.9-1.6-6.1s0.5-4.3,1.6-6.1c1.1-1.8,2.6-3.3,4.5-4.3
			c1.9-1,4-1.5,6.4-1.5c2.4,0,4.5,0.5,6.4,1.5s3.4,2.5,4.5,4.3c1.1,1.8,1.6,3.9,1.6,6.2s-0.5,4.3-1.6,6.2c-1.1,1.8-2.6,3.2-4.5,4.3
			s-4.1,1.5-6.4,1.5C178.1,305.9,175.9,305.4,174,304.3z M184.6,301c1.2-0.7,2.2-1.7,2.9-2.9c0.7-1.3,1.1-2.7,1.1-4.2
			s-0.4-3-1.1-4.2c-0.7-1.3-1.7-2.2-2.9-2.9c-1.2-0.7-2.6-1-4.2-1c-1.6,0-3,0.3-4.2,1c-1.2,0.7-2.2,1.7-2.9,2.9
			c-0.7,1.3-1.1,2.7-1.1,4.2s0.4,3,1.1,4.2c0.7,1.3,1.7,2.2,2.9,2.9c1.2,0.7,2.6,1,4.2,1C182,302.1,183.4,301.7,184.6,301z"/>
		<path class="st3" d="M197.6,282.3h4.3v19.6h12.2v3.7h-16.5V282.3z"/>
		<path class="st3" d="M221.6,304.3c-1.9-1-3.4-2.5-4.5-4.3c-1.1-1.8-1.6-3.9-1.6-6.1s0.5-4.3,1.6-6.1c1.1-1.8,2.6-3.3,4.5-4.3
			c1.9-1,4-1.5,6.4-1.5c2.4,0,4.5,0.5,6.4,1.5s3.4,2.5,4.5,4.3c1.1,1.8,1.6,3.9,1.6,6.2s-0.5,4.3-1.6,6.2c-1.1,1.8-2.6,3.2-4.5,4.3
			s-4.1,1.5-6.4,1.5C225.6,305.9,223.5,305.4,221.6,304.3z M232.2,301c1.2-0.7,2.2-1.7,2.9-2.9c0.7-1.3,1.1-2.7,1.1-4.2
			s-0.4-3-1.1-4.2c-0.7-1.3-1.7-2.2-2.9-2.9c-1.2-0.7-2.6-1-4.2-1c-1.6,0-3,0.3-4.2,1c-1.2,0.7-2.2,1.7-2.9,2.9
			c-0.7,1.3-1.1,2.7-1.1,4.2s0.4,3,1.1,4.2c0.7,1.3,1.7,2.2,2.9,2.9c1.2,0.7,2.6,1,4.2,1C229.5,302.1,230.9,301.7,232.2,301z"/>
		<path class="st3" d="M261,293.6h4.1v9.3c-1.2,1-2.6,1.7-4.2,2.2c-1.6,0.5-3.2,0.8-4.9,0.8c-2.4,0-4.5-0.5-6.4-1.5
			c-1.9-1-3.4-2.5-4.5-4.3c-1.1-1.8-1.6-3.9-1.6-6.2s0.5-4.3,1.6-6.2c1.1-1.8,2.6-3.2,4.5-4.3s4.1-1.5,6.5-1.5c2,0,3.7,0.3,5.3,1
			c1.6,0.6,2.9,1.6,4,2.8l-2.7,2.7c-1.8-1.8-3.9-2.7-6.4-2.7c-1.6,0-3.1,0.3-4.4,1s-2.3,1.7-3,2.9c-0.7,1.2-1.1,2.7-1.1,4.3
			c0,1.6,0.4,3,1.1,4.2c0.7,1.2,1.7,2.2,3,2.9s2.7,1.1,4.3,1.1c1.8,0,3.4-0.4,4.8-1.2V293.6z"/>
		<path class="st3" d="M270.8,282.3h4.3v23.3h-4.3V282.3z"/>
		<path class="st3" d="M298.9,301.9v3.6h-17.5v-23.3h17v3.6h-12.7v6.1H297v3.6h-11.3v6.4H298.9z"/>
		<path class="st3" d="M305.8,305.1c-1.7-0.5-3-1.2-4-2l1.5-3.4c1,0.8,2.1,1.4,3.5,1.8c1.4,0.5,2.8,0.7,4.2,0.7c1.7,0,3-0.3,3.9-0.8
			s1.3-1.3,1.3-2.2c0-0.7-0.2-1.2-0.7-1.6c-0.5-0.4-1.1-0.8-1.8-1s-1.7-0.5-3-0.8c-1.8-0.4-3.2-0.8-4.3-1.3c-1.1-0.4-2-1.1-2.8-2
			c-0.8-0.9-1.2-2.1-1.2-3.6c0-1.3,0.3-2.5,1-3.5c0.7-1.1,1.8-1.9,3.2-2.5c1.4-0.6,3.1-0.9,5.2-0.9c1.4,0,2.8,0.2,4.2,0.5
			c1.4,0.4,2.6,0.9,3.6,1.5l-1.4,3.4c-1-0.6-2.1-1.1-3.2-1.4c-1.1-0.3-2.2-0.5-3.2-0.5c-1.7,0-3,0.3-3.8,0.9s-1.2,1.3-1.2,2.3
			c0,0.7,0.2,1.2,0.7,1.6c0.5,0.4,1.1,0.8,1.8,1s1.7,0.5,3,0.8c1.7,0.4,3.2,0.8,4.3,1.2c1.1,0.4,2.1,1.1,2.8,2
			c0.8,0.9,1.2,2.1,1.2,3.6c0,1.3-0.3,2.5-1,3.5s-1.8,1.9-3.2,2.5c-1.4,0.6-3.2,0.9-5.2,0.9C309.2,305.9,307.4,305.6,305.8,305.1z"
			/>
		<path class="st3" d="M349.8,293.6h4.1v9.3c-1.2,1-2.6,1.7-4.2,2.2c-1.6,0.5-3.2,0.8-4.9,0.8c-2.4,0-4.5-0.5-6.4-1.5
			c-1.9-1-3.4-2.5-4.5-4.3c-1.1-1.8-1.6-3.9-1.6-6.2s0.5-4.3,1.6-6.2c1.1-1.8,2.6-3.2,4.5-4.3s4.1-1.5,6.5-1.5c2,0,3.7,0.3,5.3,1
			c1.6,0.6,2.9,1.6,4,2.8l-2.7,2.7c-1.8-1.8-3.9-2.7-6.4-2.7c-1.6,0-3.1,0.3-4.4,1s-2.3,1.7-3,2.9c-0.7,1.2-1.1,2.7-1.1,4.3
			c0,1.6,0.4,3,1.1,4.2c0.7,1.2,1.7,2.2,3,2.9s2.7,1.1,4.3,1.1c1.8,0,3.4-0.4,4.8-1.2V293.6z"/>
		<path class="st3" d="M374.8,305.6l-4.8-6.8c-0.2,0-0.5,0-0.9,0h-5.3v6.8h-4.3v-23.3h9.6c2,0,3.8,0.3,5.3,1
			c1.5,0.7,2.6,1.6,3.4,2.9c0.8,1.2,1.2,2.7,1.2,4.4c0,1.8-0.4,3.3-1.3,4.5s-2.1,2.2-3.7,2.8l5.4,7.7H374.8z M373.3,287.1
			c-1-0.8-2.4-1.2-4.3-1.2h-5.1v9.3h5.1c1.9,0,3.3-0.4,4.3-1.2c1-0.8,1.5-2,1.5-3.4C374.7,289.1,374.2,287.9,373.3,287.1z"/>
		<path class="st3" d="M388.4,304.3c-1.9-1-3.4-2.5-4.5-4.3s-1.6-3.9-1.6-6.1s0.5-4.3,1.6-6.1c1.1-1.8,2.6-3.3,4.5-4.3
			c1.9-1,4-1.5,6.4-1.5s4.5,0.5,6.4,1.5c1.9,1,3.4,2.5,4.5,4.3c1.1,1.8,1.6,3.9,1.6,6.2s-0.5,4.3-1.6,6.2c-1.1,1.8-2.6,3.2-4.5,4.3
			c-1.9,1-4.1,1.5-6.4,1.5S390.3,305.4,388.4,304.3z M399,301c1.2-0.7,2.2-1.7,2.9-2.9c0.7-1.3,1.1-2.7,1.1-4.2s-0.4-3-1.1-4.2
			c-0.7-1.3-1.7-2.2-2.9-2.9c-1.2-0.7-2.6-1-4.2-1s-3,0.3-4.2,1s-2.2,1.7-2.9,2.9s-1.1,2.7-1.1,4.2s0.4,3,1.1,4.2s1.7,2.2,2.9,2.9
			s2.6,1,4.2,1S397.7,301.7,399,301z"/>
		<path class="st3" d="M414.4,303.2c-1.8-1.8-2.7-4.4-2.7-7.8v-13.1h4.3v13c0,4.6,2,6.9,5.9,6.9c3.9,0,5.9-2.3,5.9-6.9v-13h4.3v13.1
			c0,3.4-0.9,6-2.7,7.8s-4.3,2.7-7.5,2.7S416.2,305,414.4,303.2z"/>
		<path class="st3" d="M453.1,283.3c1.5,0.7,2.6,1.6,3.4,2.9c0.8,1.2,1.2,2.7,1.2,4.4c0,1.7-0.4,3.2-1.2,4.4s-1.9,2.2-3.4,2.9
			c-1.5,0.7-3.3,1-5.3,1h-5.3v6.7h-4.3v-23.3h9.6C449.8,282.3,451.6,282.6,453.1,283.3z M451.9,294c1-0.8,1.5-1.9,1.5-3.4
			c0-1.5-0.5-2.6-1.5-3.4s-2.4-1.2-4.3-1.2h-5.1v9.3h5.1C449.5,295.2,450.9,294.8,451.9,294z"/>
	</g>
</g>
<g id="Layer_2">
	<path class="st4" d="M92.7,223c-3.6-1.4-8.1-2.7-13.6-4c-4-1-7.2-1.9-9.6-2.7c-2.3-0.8-4.3-1.8-5.8-3.2c-1.5-1.3-2.3-3.1-2.3-5.2
		c0-3.1,1.3-5.5,4-7.4c2.7-1.8,6.7-2.8,12.2-2.8c3.3,0,6.8,0.5,10.3,1.5c3.6,1,7,2.5,10.2,4.4l4.4-10.8c-3.2-2.1-7-3.8-11.4-4.9
		c-4.4-1.1-8.9-1.7-13.4-1.7c-6.5,0-12.1,1-16.6,3c-4.5,2-7.9,4.7-10.1,8c-2.2,3.4-3.4,7.1-3.4,11.2c0,4.9,1.3,8.8,3.8,11.7
		c2.5,2.9,5.5,5,9.1,6.3c3.5,1.3,8.1,2.7,13.8,4c4,1,7.2,1.9,9.6,2.7c2.3,0.8,4.3,1.9,5.8,3.2c1.5,1.4,2.3,3.1,2.3,5.3
		c0,2.9-1.4,5.3-4.1,7c-2.7,1.8-6.9,2.7-12.4,2.7c-4.5,0-8.9-0.8-13.4-2.3c-4.4-1.5-8.2-3.5-11.2-5.9L46,254.1
		c3.1,2.7,7.4,4.9,12.7,6.5c5.4,1.6,10.9,2.5,16.7,2.5c6.5,0,12.1-1,16.6-3c4.5-2,7.9-4.7,10.2-8c2.2-3.3,3.4-7.1,3.4-11.2
		c0-4.8-1.3-8.7-3.8-11.5C99.3,226.5,96.3,224.4,92.7,223z"/>
	<polygon class="st4" points="142.4,187.4 108.8,262 123.1,262 149.1,201.3 163.1,233.9 140.7,244.7 167.7,244.7 175.2,262 
		189.7,262 156,187.4 	"/>
	<polygon class="st4" points="224.5,244.9 199.7,187.4 184.7,187.4 217.3,262 230.9,262 263.4,187.4 249.6,187.4 	"/>
	<rect x="360.3" y="187.4" class="st4" width="13.9" height="74.6"/>
	<path class="st4" d="M440.8,237.5c5.1-2,9-5,11.8-9.1c2.7-4,4.1-8.9,4.1-14.5c0-5.5-1.3-10.2-3.8-14.2c-2.6-4-6.2-7-11-9.2
		s-10.4-3.2-16.9-3.2h-30.7V262h13.9v-62.9h16.2c6,0,10.6,1.3,13.7,3.8c3.1,2.6,4.7,6.2,4.7,11c0,4.8-1.6,8.4-4.7,11
		c-3.1,2.6-7.7,3.9-13.7,3.9H420l23.1,33.1H458L440.8,237.5z"/>
	<path class="st4" d="M284.8,258.1c-6.1-3.3-10.9-7.9-14.4-13.7c-3.5-5.9-5.2-12.4-5.2-19.7c0-7.2,1.7-13.8,5.2-19.7
		c3.5-5.9,8.3-10.4,14.4-13.7c6.1-3.3,13-5,20.6-5c7.6,0,14.5,1.7,20.6,5c6.1,3.3,10.9,7.9,14.4,13.7c3.5,5.8,5.2,12.4,5.2,19.7
		c0,7.3-1.7,13.9-5.2,19.7c-3.5,5.8-8.3,10.4-14.4,13.7c-6.1,3.3-13,5-20.6,5C297.8,263,290.9,261.4,284.8,258.1z M318.8,247.5
		c4-2.2,7.1-5.4,9.4-9.4c2.3-4,3.4-8.5,3.4-13.5c0-5-1.1-9.5-3.4-13.5c-2.3-4-5.4-7.1-9.4-9.4c-4-2.2-8.5-3.4-13.4-3.4
		c-5,0-9.4,1.1-13.4,3.4c-4,2.2-7.1,5.4-9.4,9.4c-2.3,4-3.4,8.5-3.4,13.5c0,5,1.1,9.5,3.4,13.5c2.3,4,5.4,7.1,9.4,9.4
		c4,2.2,8.5,3.4,13.4,3.4C310.4,250.9,314.8,249.8,318.8,247.5z"/>
</g>
</svg>
